<?xml version="1.0" encoding="UTF-8"?>
<svg version="1.1" xmlns="http://www.w3.org/2000/svg" width="512" height="512">
<path d="M0 0 C1.62827116 1.251073 1.62827116 1.251073 3.24808598 2.86776924 C3.87076109 3.48200441 4.4934362 4.09623959 5.13498026 4.72908795 C5.80998038 5.41009812 6.48498051 6.09110829 7.18043518 6.79275513 C7.90452495 7.51145936 8.62861472 8.23016359 9.3746466 8.97064674 C11.80848796 11.39013649 14.23142159 13.82026399 16.65454102 16.25048828 C18.39346842 17.98371583 20.13302634 19.71631099 21.87316895 21.44831848 C26.11340706 25.67243582 30.34648239 29.90360918 34.57604475 34.13840719 C38.01452544 37.58092731 41.45573418 41.02069746 44.89890862 44.4585228 C45.38873943 44.94760519 45.87857024 45.43668757 46.38324441 45.94059064 C47.37832665 46.93414142 48.37341234 47.92768875 49.36850142 48.92123269 C58.70451933 58.24351605 68.03092238 67.57537236 77.35433929 76.91025577 C85.88167476 85.44751837 94.42038191 93.97330078 102.96464086 102.49362315 C111.73793252 111.24252165 120.50380473 119.99878907 129.26158279 128.76321781 C134.17841397 133.68354153 139.09806691 138.60096009 144.02539253 143.51077652 C148.65990437 148.12902379 153.28383325 152.7576806 157.90079498 157.39348412 C159.59729234 159.09367354 161.2972096 160.79045834 163.00076866 162.48357201 C165.325398 164.79503296 167.63736212 167.11846888 169.94654846 169.44534302 C170.96239473 170.44678178 170.96239473 170.44678178 171.99876314 171.46845162 C177.39599551 176.9511102 180.42683103 181.98912002 180.4375 189.9375 C180.45683594 190.89527344 180.47617187 191.85304688 180.49609375 192.83984375 C179.22651783 200.92714231 174.29919507 206.29055196 168.63671875 211.859375 C167.92651077 212.57103821 167.2163028 213.28270142 166.48457336 214.01593018 C164.98908542 215.50976678 163.48868123 216.99869634 161.98364258 218.48291016 C159.69247326 220.74508967 157.42058424 223.0253855 155.15039062 225.30859375 C153.68861023 226.76413667 152.2257549 228.21860101 150.76171875 229.671875 C150.08856125 230.34796814 149.41540375 231.02406128 148.72184753 231.72064209 C142.60393358 237.71866227 136.96033924 241.66931072 128.25 242.25 C119.37370041 242.07188372 114.17370028 237.90329606 108.24243164 231.84370422 C107.13574473 230.7434255 107.13574473 230.7434255 106.00670052 229.62091893 C103.54582386 227.16825593 101.1032068 224.69819323 98.66015625 222.2277832 C96.89652612 220.46274227 95.13179339 218.69880247 93.36604309 216.93588257 C89.57123576 213.14221259 85.78420544 209.34103154 82.00408936 205.53273964 C76.5387493 200.02668934 71.05958336 194.53456874 65.57699203 189.04570236 C56.68132321 180.13910215 47.79686752 171.22140365 38.91943359 162.29663086 C30.29803078 153.62930252 21.67136945 144.96726393 13.03759766 136.31225586 C12.50502724 135.77837182 11.97245682 135.24448778 11.4237479 134.69442544 C8.75185043 132.01600258 6.07984939 129.33768306 3.40779686 126.65941489 C-18.744215 104.45560601 -40.87785072 82.2335637 -63 60 C-61.3550554 54.95924587 -59.3758882 50.8984118 -56.5625 46.4375 C-55.90640747 45.39348022 -55.90640747 45.39348022 -55.23706055 44.32836914 C-50.74446741 37.34705615 -45.57615248 31.13289782 -40 25 C-39.43152344 24.34902344 -38.86304688 23.69804687 -38.27734375 23.02734375 C-31.59088322 15.79365371 -10.03313582 -3.76631535 0 0 Z " fill="#000000" transform="translate(328,228)"/>
<path d="M0 0 C0.94875 -0.0103125 1.8975 -0.020625 2.875 -0.03125 C13.06970509 1.70184987 19.40057478 9.33749398 26.33520508 16.33349609 C27.56219533 17.55669922 28.79004258 18.7790432 30.01867676 20.00059509 C33.33957246 23.3075726 36.6478252 26.62693242 39.95349336 29.94912291 C43.41978509 33.42930086 46.8962625 36.89927858 50.3712616 40.37075806 C56.20269766 46.19949537 62.0260101 52.03625317 67.84448242 57.87792969 C74.56758431 64.62765781 81.30305155 71.36484838 88.04534417 78.09540308 C94.53860053 84.57787513 101.02333487 91.06880702 107.5041256 97.56373978 C110.25931807 100.32468446 113.01739838 103.08269572 115.77784157 105.83839035 C119.02776072 109.0835321 122.2701264 112.33603906 125.50684357 115.594347 C126.69466293 116.78772324 127.8850266 117.97857331 129.07812309 119.16667366 C130.70832857 120.79090779 132.32898253 122.42412138 133.94758606 124.05990601 C134.85622312 124.97097296 135.76486017 125.88203991 136.70103168 126.82071495 C141.58418491 132.51168483 143.13400013 138.14115967 143 145.5 C141.37595442 158.04361523 128.15201886 167.58351995 119.65209961 176.14306641 C118.5027677 177.30401765 117.35794285 178.46944713 116.2175293 179.63916016 C114.53895751 181.36058808 112.84734361 183.06820064 111.15234375 184.7734375 C110.65314926 185.29014008 110.15395477 185.80684265 109.63963318 186.33920288 C105.16554003 190.78663146 100.15635811 193.96341912 93.875 195.03125 C92.92625 195.0209375 91.9775 195.010625 91 195 C89.576875 195.01546875 89.576875 195.01546875 88.125 195.03125 C77.9051505 193.29387558 71.53606319 185.61160182 64.57299805 178.60644531 C63.3361383 177.37665045 62.09843946 176.14769901 60.85997009 174.91952515 C57.51203157 171.59402331 54.17686467 168.25598765 50.84457755 164.91481113 C48.05756643 162.12267878 45.26436033 159.33678563 42.4711507 156.55085635 C35.88113286 149.97781857 29.30142748 143.39458434 22.72827148 136.8046875 C15.95372893 130.01321448 9.16295138 123.23829802 2.36381501 116.47145391 C-3.48155782 110.65279097 -9.31715495 104.82445234 -15.14494485 98.98817897 C-18.62212167 95.50607846 -22.10275392 92.02762692 -25.59264565 88.55826569 C-28.87321528 85.29607553 -32.14135917 82.02192193 -35.40044212 78.73826981 C-36.59618472 77.53752718 -37.7961754 76.34099727 -39.00074768 75.1491127 C-40.64890941 73.51694036 -42.28078726 71.86999577 -43.90962219 70.21856689 C-44.82563359 69.30196918 -45.74164499 68.38537148 -46.68541431 67.44099808 C-50.68792492 62.35526024 -52.7431292 56.49645619 -52.38114929 49.98806763 C-51.09528228 41.59418063 -45.42663695 35.18208172 -39.57421875 29.4453125 C-38.86779739 28.73647919 -38.16137604 28.02764587 -37.43354797 27.29733276 C-35.94945833 25.81421532 -34.45922427 24.3372227 -32.96313477 22.86621094 C-30.68791992 20.62541357 -28.43780118 18.36146979 -26.18945312 16.09375 C-24.73580523 14.64699903 -23.28077281 13.20163757 -21.82421875 11.7578125 C-21.15935959 11.08799347 -20.49450043 10.41817444 -19.80949402 9.72805786 C-14.10754883 4.16633943 -8.24691062 -0.08964033 0 0 Z " fill="#000000" transform="translate(94,184.5)"/>
<path d="M0 0 C0.94875 -0.0103125 1.8975 -0.020625 2.875 -0.03125 C13.06970509 1.70184987 19.40057478 9.33749398 26.33520508 16.33349609 C27.56219533 17.55669922 28.79004258 18.7790432 30.01867676 20.00059509 C33.33957246 23.3075726 36.6478252 26.62693242 39.95349336 29.94912291 C43.41978509 33.42930086 46.8962625 36.89927858 50.3712616 40.37075806 C56.20269766 46.19949537 62.0260101 52.03625317 67.84448242 57.87792969 C74.56758431 64.62765781 81.30305155 71.36484838 88.04534417 78.09540308 C94.53860053 84.57787513 101.02333487 91.06880702 107.5041256 97.56373978 C110.25931807 100.32468446 113.01739838 103.08269572 115.77784157 105.83839035 C119.02776072 109.0835321 122.2701264 112.33603906 125.50684357 115.594347 C126.69466293 116.78772324 127.8850266 117.97857331 129.07812309 119.16667366 C130.70832857 120.79090779 132.32898253 122.42412138 133.94758606 124.05990601 C134.85622312 124.97097296 135.76486017 125.88203991 136.70103168 126.82071495 C141.58418491 132.51168483 143.13400013 138.14115967 143 145.5 C141.37595442 158.04361523 128.15201886 167.58351995 119.65209961 176.14306641 C118.5027677 177.30401765 117.35794285 178.46944713 116.2175293 179.63916016 C114.53895751 181.36058808 112.84734361 183.06820064 111.15234375 184.7734375 C110.65314926 185.29014008 110.15395477 185.80684265 109.63963318 186.33920288 C104.23364725 191.71297038 98.25840675 195.07210199 90.5 195.0625 C89.4584375 195.08441406 88.416875 195.10632813 87.34375 195.12890625 C77.47328562 193.27242872 70.46600068 184.40529932 63.66479492 177.5847168 C62.43757227 176.36484283 61.20973142 175.14559053 59.98132324 173.9269104 C56.6625106 170.63023184 53.35331899 167.32405709 50.04650664 164.01534629 C47.28058299 161.24930263 44.5103243 158.48762016 41.74018365 155.72580081 C35.20491117 149.20973114 28.67780929 142.68555483 22.15551758 136.15649414 C15.43405127 129.42838074 8.69794579 122.71518033 1.95465583 116.00894612 C-3.8438898 110.24110768 -9.63271228 104.46363417 -15.4139778 98.67847568 C-18.8629596 95.22742844 -22.31559093 91.78024416 -25.77784157 88.3425045 C-29.03204538 85.11058329 -32.27393173 81.86679032 -35.50684357 78.61357498 C-36.69290459 77.42410731 -37.88321933 76.23886324 -39.07812309 75.05827904 C-51.67986362 62.59715987 -51.67986362 62.59715987 -52.375 52.5 C-51.62766302 38.27291817 -38.0675487 28.33843236 -28.65209961 18.85693359 C-27.5027677 17.69598235 -26.35794285 16.53055287 -25.2175293 15.36083984 C-23.53895751 13.63941192 -21.84734361 11.93179936 -20.15234375 10.2265625 C-19.65314926 9.70985992 -19.15395477 9.19315735 -18.63963318 8.66079712 C-13.43591918 3.48809605 -7.5035762 -0.08156061 0 0 Z " fill="#000000" transform="translate(275,3.5)"/>
<path d="M0 0 C3.56843492 1.51741354 5.85370271 3.60685085 8.58111572 6.34060669 C9.95245667 7.70782364 9.95245667 7.70782364 11.35150146 9.10266113 C12.35714871 10.11538613 13.36269969 11.12820672 14.36816406 12.14111328 C15.4323503 13.20586376 16.49697733 14.27017383 17.56201172 15.33407593 C20.45047575 18.22196598 23.3327304 21.11598241 26.21391773 24.01112986 C29.22657973 27.03629155 32.24490374 30.05579312 35.26263428 33.07589722 C40.97557217 38.79505211 46.68339253 44.5192863 52.38939643 50.24535835 C58.88602318 56.76433723 65.38832763 63.27764025 71.89111757 69.79047036 C85.26707693 83.1873367 98.63588184 96.5913219 112 110 C110.69851031 112.60297939 109.58498986 112.8057534 106.94140625 113.9609375 C105.66305908 114.53533569 105.66305908 114.53533569 104.35888672 115.12133789 C103.4360791 115.53504639 102.51327148 115.94875488 101.5625 116.375 C86.4720789 123.35319217 70.90647576 132.58071843 59.33984375 144.74609375 C58 146 58 146 56 146 C55.7628125 146.55042969 55.525625 147.10085937 55.28125 147.66796875 C53.68512251 150.57311543 51.68214075 152.81615861 49.5 155.3125 C38.1373487 168.6938439 28.10173874 184.48551145 22 201 C18.02641212 200.4502971 16.20680108 198.5816128 13.41888428 195.79310608 C12.50465698 194.8858931 11.59042969 193.97868011 10.64849854 193.04397583 C9.64279713 192.03084679 8.63724803 191.01756654 7.63183594 190.00415039 C6.56784898 188.9425913 5.50321689 187.88167849 4.43798828 186.82136536 C1.54706139 183.93984997 -1.33436037 181.04899891 -4.21391773 178.15612721 C-7.22537966 175.13336011 -10.24453862 172.1182985 -13.26263428 169.10215759 C-18.32842551 164.03724942 -23.38819933 158.96639074 -28.44433594 153.8918457 C-34.29678582 148.01821092 -40.15803468 142.15347303 -46.02420259 136.29354101 C-51.66087941 130.66255028 -57.29188185 125.02591977 -62.92009735 119.3864727 C-65.31867717 116.98323863 -67.71914254 114.58191122 -70.12110138 112.18205452 C-72.94597628 109.35905741 -75.76583247 106.53114187 -78.58181763 103.69927788 C-79.61856209 102.65827604 -80.65702715 101.61898464 -81.69728851 100.58149719 C-83.11174982 99.17023722 -84.51948926 97.75224949 -85.92681885 96.33387756 C-86.71805271 95.54059083 -87.50928658 94.7473041 -88.32449722 93.92997837 C-90 92 -90 92 -90 90 C-89.42781738 89.72961914 -88.85563477 89.45923828 -88.26611328 89.18066406 C-70.28502004 80.61550366 -51.2659703 70.90091464 -37.33984375 56.25390625 C-36 55 -36 55 -34 55 C-33.7628125 54.44957031 -33.525625 53.89914063 -33.28125 53.33203125 C-31.68512251 50.42688457 -29.68214075 48.18384139 -27.5 45.6875 C-15.92157157 32.06768411 -6.85046569 16.49265722 0 0 Z " fill="#000000" transform="translate(219,91)"/>
<path d="M0 0 C98.67 0 197.34 0 299 0 C299 14.19 299 28.38 299 43 C200.33 43 101.66 43 0 43 C0 28.81 0 14.62 0 0 Z " fill="#000000" transform="translate(0,469)"/>
<path d="M0 0 C0.75323036 -0.00523668 1.50646072 -0.01047336 2.28251624 -0.01586872 C4.80808773 -0.03087802 7.33345678 -0.03157408 9.85906982 -0.03224182 C11.66932009 -0.03986277 13.47956712 -0.04829016 15.28981018 -0.0574646 C20.20938129 -0.07942489 25.12889024 -0.08821075 30.04850483 -0.09329104 C33.12273458 -0.09693329 36.19694803 -0.10317272 39.27117157 -0.11029243 C49.99823218 -0.1347938 60.72524439 -0.14783998 71.45233154 -0.15138245 C81.44757268 -0.1550166 91.44250654 -0.18490165 101.43765378 -0.22678703 C110.02123861 -0.26149464 118.60472166 -0.27693098 127.18837619 -0.27762848 C132.31393739 -0.27842124 137.43918574 -0.28715909 142.56467438 -0.31562614 C147.38780887 -0.34181421 152.21037136 -0.34400781 157.03354454 -0.3279705 C158.80078822 -0.32615651 160.56806484 -0.33284228 162.3352375 -0.34878922 C179.63920488 -0.49538123 179.63920488 -0.49538123 185.54949951 5.27415466 C196.13806857 16.69866338 191.54949951 24.43106126 191.54949951 43.27415466 C120.92949951 43.27415466 50.30949951 43.27415466 -22.45050049 43.27415466 C-22.45050049 17.27415466 -22.45050049 17.27415466 -18.45050049 8.27415466 C-12.47541219 2.40576437 -8.47130398 -0.02911401 0 0 Z " fill="#000000" transform="translate(64.45050048828125,404.72584533691406)"/>
</svg>
