<?xml version="1.0" encoding="UTF-8"?>
<svg version="1.1" xmlns="http://www.w3.org/2000/svg" width="512" height="512">
<path d="M0 0 C159.06 0 318.12 0 482 0 C482.061875 43.951875 482.12375 87.90375 482.1875 133.1875 C482.21481201 147.06063232 482.24212402 160.93376465 482.27026367 175.22729492 C482.28381348 192.18029785 482.28381348 192.18029785 482.28633118 200.11909485 C482.28912382 205.65856258 482.30010728 211.19793909 482.31672668 216.73738098 C482.3358867 223.13314829 482.34449293 229.52882839 482.34033485 235.92462458 C482.33853547 239.19306793 482.34299132 242.46127839 482.35764539 245.72969472 C482.4458945 266.37690917 481.84392995 283.99764542 466.8125 299.875 C453.33575945 312.52211904 439.75088298 315.46313857 421.80691528 315.38768005 C420.1815116 315.39185881 418.55611085 315.39733929 416.93071544 315.40399987 C412.48838744 315.41840214 408.0462458 315.41422614 403.60390782 315.40683305 C398.80351747 315.40209072 394.00316682 315.41462064 389.20278931 315.42485046 C379.80781099 315.44202295 370.4128996 315.44288169 361.01790966 315.43763756 C353.37954636 315.43359174 345.74120279 315.43504432 338.10284042 315.44038582 C336.47046761 315.44150845 336.47046761 315.44150845 334.80511757 315.44265376 C332.59415095 315.44418528 330.38318433 315.44572363 328.17221771 315.44726873 C307.45076129 315.46098817 286.72934266 315.45555999 266.00788711 315.44408352 C247.06394216 315.43415176 228.12009489 315.44709184 209.176165 315.47101771 C189.7090202 315.49541854 170.24192087 315.50501415 150.77476108 315.49836498 C139.85163398 315.49487496 128.92858198 315.4970906 118.00546646 315.51461601 C108.70692581 315.52935026 99.40851317 315.52995739 90.109975 315.5125451 C85.36908405 315.50404286 80.62842165 315.50186662 75.88754272 315.51719666 C71.54112543 315.53107678 67.19513178 315.5262381 62.84873877 315.50695742 C61.282899 315.50320728 59.71702501 315.50609075 58.15121581 315.51656907 C40.89617921 315.62375777 27.68434469 311.23742011 14.8125 299.5625 C10.83823939 295.41076045 8.08671262 291.08323969 5.5 286 C5.17362549 285.36006104 4.84725098 284.72012207 4.51098633 284.06079102 C0.33954137 275.25712131 -0.29579744 266.24090196 -0.24050903 256.62313843 C-0.24222107 255.52284302 -0.24393311 254.42254761 -0.24569702 253.28890991 C-0.24899085 249.61360059 -0.23798729 245.93847609 -0.22705078 242.26318359 C-0.22643776 239.57866329 -0.22661702 236.8941538 -0.2277813 234.20963478 C-0.22884123 227.76021582 -0.2196397 221.31085291 -0.20677864 214.86144833 C-0.19233854 207.3956639 -0.19078695 199.92991279 -0.18920898 192.46411133 C-0.17872239 172.76773205 -0.15080001 153.07136517 -0.125 133.375 C-0.08375 89.36125 -0.0425 45.3475 0 0 Z M312.18798828 78.77783203 C311.04057143 79.93373769 309.89288383 81.08937464 308.74494934 82.24476624 C306.2943662 84.71193153 303.84520461 87.18049605 301.39703751 89.65005875 C297.52672564 93.55321854 293.65026057 97.45022806 289.77243042 101.34591675 C288.44085083 102.68375549 287.10927162 104.02159462 285.77769279 105.35943413 C284.77845996 106.36334116 284.77845996 106.36334116 283.75904059 107.38752913 C274.74491822 116.4445839 265.73553374 125.50627895 256.74023438 134.58203125 C250.6515915 140.72503413 244.55419828 146.85920021 238.44650638 152.98326576 C235.21930509 156.21985471 231.99688319 159.46090951 228.78519058 162.71289444 C225.77355334 165.76221981 222.75063277 168.79987143 219.71846581 171.82877922 C218.6062874 172.94394013 217.49842438 174.06342343 216.39516258 175.18740654 C214.89317704 176.71635065 213.37671643 178.22926992 211.85549927 179.73904419 C211.00937639 180.59107485 210.16325352 181.44310551 209.29149055 182.32095528 C207 184 207 184 204.84661293 183.89552593 C201.98259321 182.50660252 200.12069956 180.44449765 197.89941406 178.17651367 C197.15703491 177.42515388 197.15703491 177.42515388 196.3996582 176.65861511 C195.32691944 175.57112666 194.25762988 174.48022738 193.19141388 173.386343 C191.49928836 171.65121696 189.79748515 169.92614148 188.0927124 168.20344543 C183.24808051 163.30383159 178.42330455 158.38479419 173.60058594 153.46362305 C170.64781544 150.45194722 167.68514928 147.45028144 164.71672821 144.45403481 C163.04706841 142.76232737 161.389548 141.05931663 159.73199463 139.35575867 C152.54284378 132.04982381 145.73653582 125.98272544 134.9375 125.6875 C126.8330824 125.80511028 120.62937052 128.14226611 114.625 133.625 C109.49990799 139.2273273 106.88077893 145.40822006 106.5 153 C107.39032916 170.26698972 124.05890411 182.25430407 135.40234375 193.67578125 C136.13182283 194.41058401 136.86130192 195.14538677 137.61288643 195.90245628 C141.46619852 199.78230584 145.32304884 203.658602 149.18237305 207.5324707 C152.35771991 210.72120085 155.52561835 213.91706218 158.68725586 217.11938477 C162.53144252 221.01300402 166.38786728 224.89409603 170.25329781 228.76662254 C171.71467661 230.23468381 173.17182244 231.70697233 174.62446404 233.18367958 C187.65003146 246.61293164 187.65003146 246.61293164 205.0625 252.3125 C221.96973038 250.97065632 232.53923262 236.61650512 243.81567383 225.37719727 C245.17830713 224.02248336 246.54111524 222.66794526 247.90408325 221.31356812 C252.34208517 216.9015433 256.77485658 212.48428377 261.20703125 208.06640625 C262.74047523 206.53832932 264.27392444 205.01025763 265.80737877 203.48219109 C272.18453741 197.12661283 278.56027426 190.76961395 284.93230152 184.40889072 C294.03401863 175.32343484 303.14414207 166.246598 312.26611501 157.18147808 C318.69974706 150.78657331 325.12374056 144.38208688 331.54068011 137.9704327 C335.36589733 134.14886091 339.19514737 130.33155014 343.03476906 126.52444649 C346.64339482 122.94595518 350.23988964 119.35569873 353.82759476 115.75623703 C355.14180869 114.44180292 356.46027061 113.13159949 357.78337288 111.82611275 C366.30813882 103.40866405 374.2637962 95.3865985 375.25 82.8125 C374.71321761 74.62656861 371.73435478 67.90187525 366 62 C343.96784045 44.67331165 327.73793317 63.05774921 312.18798828 78.77783203 Z " fill="#000000" transform="translate(15,197)"/>
<path d="M0 0 C0.92065247 0.00007553 1.84130493 0.00015106 2.78985596 0.00022888 C3.77540466 0.00539017 4.76095337 0.01055145 5.77636719 0.01586914 C6.79172546 0.01728409 7.80708374 0.01869904 8.85321045 0.02015686 C12.09325111 0.02575023 15.33322244 0.03830154 18.57324219 0.05102539 C20.77115786 0.05604125 22.96907461 0.060604 25.16699219 0.06469727 C30.55243247 0.07571749 35.93783238 0.09244906 41.32324219 0.11352539 C41.33782471 0.67225342 41.35240723 1.23098145 41.36743164 1.80664062 C41.44285017 4.38872591 41.53919099 6.96964723 41.63574219 9.55102539 C41.65830078 10.42952148 41.68085937 11.30801758 41.70410156 12.21313477 C42.12823698 22.66228922 45.00336595 30.53681139 52.32324219 38.11352539 C59.22212187 44.19142515 67.4693038 47.33711332 76.69824219 46.98461914 C85.70966841 45.82690119 94.08140736 43.04702299 100.32324219 36.11352539 C108.56910418 24.69162565 108.51454711 14.67003672 109.32324219 0.11352539 C132.42324219 0.11352539 155.52324219 0.11352539 179.32324219 0.11352539 C179.65324219 6.38352539 179.98324219 12.65352539 180.32324219 19.11352539 C183.13700544 29.43065733 187.51332097 37.16017469 196.77246094 42.85571289 C205.68753617 47.25181431 214.39202535 48.06821307 223.88574219 45.39086914 C232.88521626 42.22184702 238.40856136 37.41329489 242.76074219 28.92602539 C247.48311362 18.90224516 246.66138707 12.68877256 247.32324219 0.11352539 C270.42324219 0.11352539 293.52324219 0.11352539 317.32324219 0.11352539 C317.65324219 6.05352539 317.98324219 11.99352539 318.32324219 18.11352539 C320.40338628 27.85735826 324.15405755 35.10533311 332.32324219 41.05102539 C339.78307759 45.85773481 347.447607 47.8949006 356.31933594 46.71508789 C366.60211556 44.4882439 373.34370516 39.95714119 379.81542969 31.75024414 C383.87782242 24.64631903 384.80343443 17.62418181 385.01074219 9.55102539 C385.04490234 8.63772461 385.0790625 7.72442383 385.11425781 6.78344727 C385.19573577 4.5602631 385.26519957 2.33742342 385.32324219 0.11352539 C389.6790587 0.01345361 394.03423812 -0.05849909 398.39086914 -0.10620117 C399.86787597 -0.12611948 401.34480602 -0.15326468 402.8215332 -0.18823242 C415.72710097 -0.48581757 426.46459677 1.09990672 436.32324219 10.11352539 C442.51660564 16.09134255 445.64383588 22.71649387 447.32324219 31.11352539 C447.32324219 63.78352539 447.32324219 96.45352539 447.32324219 130.11352539 C288.26324219 130.11352539 129.20324219 130.11352539 -34.67675781 130.11352539 C-34.67675781 21.72112033 -34.67675781 21.72112033 -23.82519531 10.13696289 C-17.18111858 3.91641296 -9.18859462 -0.02524339 0 0 Z " fill="#000000" transform="translate(49.6767578125,46.886474609375)"/>
<path d="M0 0 C5.8178049 5.3285804 9.06519821 11.30999592 9.41992188 19.22583008 C9.45302576 21.24019089 9.46835458 23.25489848 9.46875 25.26953125 C9.48017029 26.88380257 9.48017029 26.88380257 9.49182129 28.53068542 C9.50259425 30.80078826 9.50548685 33.07094054 9.50097656 35.34106445 C9.50000594 38.79138045 9.5416279 42.23945862 9.5859375 45.68945312 C9.59114653 47.90364124 9.59383266 50.11783701 9.59375 52.33203125 C9.6183429 53.86220634 9.6183429 53.86220634 9.64343262 55.42329407 C9.56834387 63.31261005 7.67355251 70.05808733 2.18591309 75.9466095 C-4.72898703 82.31795821 -11.87280106 82.52959919 -20.88671875 82.3046875 C-28.11059727 81.9126313 -31.98800389 79.30998368 -36.875 74.125 C-42.42399189 67.75011164 -42.31862455 60.84008358 -42.3359375 52.79296875 C-42.3425943 51.71300125 -42.3492511 50.63303375 -42.35610962 49.52033997 C-42.36621352 47.24005836 -42.37092734 44.95974732 -42.37060547 42.67944336 C-42.37497216 39.20962217 -42.41129967 35.74108026 -42.44921875 32.27148438 C-42.45508882 30.04948349 -42.45905694 27.8274766 -42.4609375 25.60546875 C-42.47530853 24.57705368 -42.48967957 23.54863861 -42.50448608 22.48905945 C-42.45664972 14.86268194 -41.02197298 8.59873125 -36.03515625 2.66015625 C-25.68610947 -5.72154698 -11.47310741 -8.328067 0 0 Z " fill="#000000" transform="translate(279,5)"/>
<path d="M0 0 C4.31634311 4.21999616 7.61001589 8.32283214 8.26742554 14.52156067 C8.27504913 15.41010239 8.28267273 16.2986441 8.29052734 17.21411133 C8.30328705 18.22899124 8.31604675 19.24387115 8.32919312 20.289505 C8.33141876 21.37603867 8.33364441 22.46257233 8.3359375 23.58203125 C8.3425943 24.71017746 8.3492511 25.83832367 8.35610962 27.00065613 C8.36622451 29.38526787 8.370927 31.76990785 8.37060547 34.15454102 C8.37497183 37.78905305 8.41128709 41.42234385 8.44921875 45.05664062 C8.45508859 47.37760003 8.45905686 49.69856518 8.4609375 52.01953125 C8.47530853 53.09999222 8.48967957 54.18045319 8.50448608 55.2936554 C8.45834913 62.97409872 7.23503128 68.30833409 2.03515625 74.2421875 C1.38417969 74.78101562 0.73320312 75.31984375 0.0625 75.875 C-0.58589844 76.42929688 -1.23429687 76.98359375 -1.90234375 77.5546875 C-8.95155157 82.41168358 -17.76968884 81.80977646 -26 81 C-32.30392849 79.46537018 -36.5111066 75.33151345 -40 70 C-42.96553024 63.55055944 -43.44414928 57.3868688 -43.3984375 50.375 C-43.40130768 49.38806152 -43.40417786 48.40112305 -43.40713501 47.38427734 C-43.40916463 45.31021547 -43.4037125 43.23613397 -43.39111328 41.16210938 C-43.3750442 38.00867431 -43.39100011 34.85652076 -43.41015625 31.703125 C-43.40817362 29.67708054 -43.40432955 27.65103686 -43.3984375 25.625 C-43.40451019 24.69349121 -43.41058289 23.76198242 -43.4168396 22.80224609 C-43.32633552 14.27269418 -41.6928971 6.87224231 -35.73828125 0.50390625 C-25.83436805 -8.06464787 -9.95694549 -8.66787666 0 0 Z " fill="#000000" transform="translate(142,6)"/>
<path d="M0 0 C6.77768088 7.15975603 7.74156579 15.62939526 7.6796875 25.12109375 C7.68255768 26.10803223 7.68542786 27.0949707 7.68838501 28.11181641 C7.69041463 30.18587828 7.6849625 32.25995978 7.67236328 34.33398438 C7.6562942 37.48741944 7.67225011 40.63957299 7.69140625 43.79296875 C7.68942362 45.81901321 7.68557955 47.84505689 7.6796875 49.87109375 C7.68879654 51.26835693 7.68879654 51.26835693 7.6980896 52.69384766 C7.61863402 60.18213448 6.28617835 66.42973275 2.15625 72.74609375 C-4.92784057 79.52218038 -10.9027584 81.20021242 -20.54541016 81.01513672 C-28.84442354 80.60451325 -33.03045823 78.54026316 -38.59375 72.55859375 C-42.36407499 68.14819034 -43.95943389 64.09131303 -44.00927734 58.28198242 C-44.02203705 57.26710251 -44.03479675 56.2522226 -44.04794312 55.20658875 C-44.05016876 54.12005508 -44.05239441 53.03352142 -44.0546875 51.9140625 C-44.0646727 50.22184319 -44.0646727 50.22184319 -44.07485962 48.49543762 C-44.08497451 46.11082588 -44.089677 43.7261859 -44.08935547 41.34155273 C-44.09372183 37.7070407 -44.13003709 34.0737499 -44.16796875 30.43945312 C-44.17383859 28.11849372 -44.17780686 25.79752857 -44.1796875 23.4765625 C-44.19405853 22.39610153 -44.20842957 21.31564056 -44.22323608 20.20243835 C-44.1749865 12.17030411 -42.58278653 6.90197502 -37.40625 0.74609375 C-26.69086431 -8.22492683 -10.97258842 -9.60101486 0 0 Z " fill="#000000" transform="translate(419.71875,6.50390625)"/>
</svg>
