<?xml version="1.0" encoding="UTF-8"?>
<svg version="1.1" xmlns="http://www.w3.org/2000/svg" width="512" height="512">
<path d="M0 0 C137.28 0 274.56 0 416 0 C416.0825 40.71375 416.165 81.4275 416.25 123.375 C416.28641602 136.23130371 416.32283203 149.08760742 416.36035156 162.33349609 C416.37841797 178.03051758 416.37841797 178.03051758 416.3817749 185.37857056 C416.38550205 190.51152362 416.40016199 195.64435031 416.42230225 200.7772522 C416.45051303 207.32723651 416.4579603 213.87702808 416.4522891 220.42708516 C416.45347479 222.82928602 416.46139297 225.23149537 416.47686052 227.63364673 C416.49681243 230.88353834 416.49194042 234.13250198 416.48101807 237.38241577 C416.49266872 238.31797113 416.50431938 239.2535265 416.51632309 240.21743202 C416.43662036 249.06560672 413.80977025 256.93032175 407.703125 263.46875 C401.25402016 269.26702775 394.25742603 272.24620953 385.54245377 272.25726891 C384.25478489 272.2637178 382.96711602 272.27016669 381.64042687 272.276811 C380.21863786 272.27386897 378.79684924 272.27073355 377.37506104 272.26742554 C375.85908079 272.27116305 374.34310248 272.27576498 372.82712722 272.28115618 C368.66418816 272.29338915 364.50132945 272.29312536 360.33837652 272.29076743 C355.84743861 272.29035934 351.35652649 272.30139773 346.86560059 272.31088257 C338.06786561 272.32749538 329.27015743 272.33299225 320.47240809 272.33410732 C313.32064926 272.3350577 306.16889928 272.33916749 299.01714325 272.34550858 C278.73903383 272.36312206 258.46094558 272.37234732 238.18282846 272.37084763 C237.08963374 272.37076772 235.99643902 272.3706878 234.87011719 272.37060547 C233.77558706 272.37052371 232.68105694 272.37044195 231.55335924 272.37035771 C213.81631125 272.36954487 196.07934819 272.38868178 178.34232476 272.4168822 C160.12854059 272.44561203 141.91479784 272.45942243 123.70099044 272.45769465 C113.47596001 272.45703076 103.25101862 272.46252243 93.02600861 272.48405075 C84.31978335 272.50226387 75.61368748 272.50660882 66.90745142 272.4930319 C62.46669595 272.48650282 58.02618869 272.48638287 53.58545685 272.5037384 C49.51655791 272.51947693 45.44810382 272.51659771 41.37921569 272.49917014 C39.91085337 272.49610194 38.44245779 272.49972589 36.97413471 272.51089029 C26.03884596 272.58849962 16.77810002 271.40537172 8.53125 263.703125 C1.5368058 255.92359012 -0.30339412 248.0886305 -0.24050903 237.86343384 C-0.24222107 236.84803528 -0.24393311 235.83263672 -0.24569702 234.78646851 C-0.24900586 231.37531503 -0.23796274 227.96435817 -0.22705078 224.55322266 C-0.22643811 222.06943963 -0.2267051 219.58565626 -0.2277813 217.1018734 C-0.2281872 211.1223549 -0.21961923 205.14291243 -0.20677864 199.16341295 C-0.19236763 192.24524868 -0.19078854 185.32711447 -0.18920898 178.40893555 C-0.17871218 160.14761417 -0.1507899 141.88630618 -0.125 123.625 C-0.08375 82.82875 -0.0425 42.0325 0 0 Z M199.15014648 39.04858398 C196.37981046 42.8513082 194.43982231 46.86474583 192.41015625 51.09765625 C191.53483299 52.88622816 190.65917167 54.67463466 189.78320312 56.46289062 C188.41821673 59.26737086 187.05714011 62.0736152 185.70239258 64.88305664 C184.38642462 67.60574076 183.05553892 70.32072172 181.72265625 73.03515625 C181.32353531 73.87377701 180.92441437 74.71239777 180.51319885 75.57643127 C178.28594403 80.08925785 176.40031161 83.26364551 172 86 C168.77734375 86.90625 168.77734375 86.90625 164.9375 87.5 C164.22867676 87.61472656 163.51985352 87.72945312 162.78955078 87.84765625 C157.83785656 88.63020722 152.86962541 89.29370071 147.90234375 89.96875 C146.66170166 90.13955078 145.42105957 90.31035156 144.14282227 90.48632812 C141.66688444 90.8238758 139.18950196 91.15102087 136.71069336 91.46679688 C129.53252735 92.43223141 123.68135771 93.4811763 117.625 97.625 C115.23519942 101.11778547 114.60982574 104.79321207 115 109 C117.03152703 112.8829685 119.50908654 115.75520133 122.60546875 118.8359375 C123.95801758 120.18558594 123.95801758 120.18558594 125.33789062 121.5625 C125.80686768 122.02527344 126.27584473 122.48804688 126.7590332 122.96484375 C128.17117559 124.35888484 129.57490367 125.76143278 130.97851562 127.1640625 C135.63163886 131.78746387 140.32872804 136.28799272 145.34326172 140.51879883 C148.39885485 143.25064137 151.15821614 146.31643227 153 150 C153.27850586 156.10720547 152.52895212 161.72584186 151.43359375 167.72265625 C151.10982709 169.57874135 150.78626554 171.43486224 150.46289062 173.29101562 C149.950738 176.18370678 149.43512292 179.07572121 148.9152832 181.96704102 C148.41216487 184.77987564 147.92223372 187.59477585 147.43359375 190.41015625 C147.27531601 191.26762955 147.11703827 192.12510284 146.95396423 193.00856018 C145.9121314 199.0604091 145.33882908 204.42232099 148.8125 209.8125 C151.99825112 212.99825112 153.69054098 213.90294411 158.21484375 214.23828125 C162.54199705 213.96588047 164.93059058 212.90353078 168.75 210.875 C169.40685791 210.53533203 170.06371582 210.19566406 170.74047852 209.84570312 C174.25896314 208.01865402 177.7469919 206.13722603 181.23193359 204.24707031 C184.19519871 202.64157203 187.16458134 201.04904485 190.13952637 199.46539307 C191.90730781 198.51621121 193.66327695 197.54513463 195.41894531 196.57373047 C197.08135254 195.68645264 197.08135254 195.68645264 198.77734375 194.78125 C199.75952881 194.24564453 200.74171387 193.71003906 201.75366211 193.15820312 C207.29589468 191.18088859 212.46472648 191.06781713 217.89233398 193.48120117 C219.1867531 194.1497537 220.47120073 194.83789351 221.74609375 195.54296875 C222.79012108 196.09118034 222.79012108 196.09118034 223.85523987 196.65046692 C226.05891804 197.81238667 228.24806223 198.99900338 230.4375 200.1875 C231.90077774 200.96591512 233.36496543 201.74262223 234.83007812 202.51757812 C237.63705255 204.00478851 240.44130262 205.49689468 243.24267578 206.99462891 C247.99596585 209.53408977 247.99596585 209.53408977 252.76953125 212.03515625 C253.49889893 212.41679932 254.2282666 212.79844238 254.97973633 213.19165039 C258.86011085 214.74426913 261.01992132 214.32669289 265 213 C268.36797045 210.30709116 270.57141076 207.65729627 271.66015625 203.44726562 C272.09905383 198.99522985 271.39259951 195.13402714 270.56640625 190.76171875 C270.40961899 189.88151566 270.25283173 189.00131256 270.09129333 188.09443665 C269.5911256 185.2903277 269.07811774 182.48880612 268.5625 179.6875 C268.05121282 176.8967946 267.54307685 174.10568953 267.04441833 171.31269836 C266.73479618 169.5793895 266.41807485 167.84732765 266.09291077 166.11686707 C263.70335796 152.7700989 263.70335796 152.7700989 266.375 147.0625 C271.07661533 141.06043787 276.88892546 135.73557861 282.6875 130.8125 C286.87149732 127.18924459 290.8912398 123.40322688 294.875 119.5625 C295.87599731 118.63111206 295.87599731 118.63111206 296.8972168 117.6809082 C301.33665248 113.34147773 303.25141862 110.21898378 304 104 C303.62481172 101.58130401 303.62481172 101.58130401 302.4375 99.6875 C302.10621094 99.05199219 301.77492188 98.41648437 301.43359375 97.76171875 C297.0509871 92.37600867 290.88812115 92.12177712 284.44140625 91.28125 C283.41949692 91.13723755 282.39758759 90.9932251 281.3447113 90.84484863 C278.08534802 90.38592312 274.82429041 89.94132229 271.5625 89.5 C267.27035173 88.91832558 262.98048088 88.32262198 258.69140625 87.71875 C257.21928429 87.52641785 257.21928429 87.52641785 255.71742249 87.3302002 C244.24356017 85.71365795 244.24356017 85.71365795 240.59130859 81.29614258 C240.28016113 80.66861084 239.96901367 80.0410791 239.6484375 79.39453125 C239.27807373 78.66959473 238.90770996 77.9446582 238.52612305 77.19775391 C238.14625244 76.41062012 237.76638184 75.62348633 237.375 74.8125 C236.95968018 73.99185059 236.54436035 73.17120117 236.11645508 72.32568359 C234.72305676 69.56047807 233.358562 66.7824796 232 64 C230.42460517 60.77499793 228.84788678 57.55077048 227.26220703 54.33081055 C226.23006521 52.22956182 225.20849494 50.12307977 224.19873047 48.01098633 C220.24122056 39.39278698 220.24122056 39.39278698 212.71875 34.1875 C206.59754223 33.67021484 203.41571983 34.32475847 199.15014648 39.04858398 Z " fill="#000000" transform="translate(48,192)"/>
<path d="M0 0 C5.4521357 2.53134872 6.4759981 4.71399714 10 10 C10 27.82 10 45.64 10 64 C73.36 64 136.72 64 202 64 C202 46.18 202 28.36 202 10 C207.17241379 2.24137931 207.17241379 2.24137931 212 0 C217.5997712 -0.75381535 222.33499991 -0.77303575 227.5 1.625 C232.30062868 6.18559725 234.21938506 8.9824482 234.45410156 15.63818359 C234.45347154 17.89170081 234.43106669 20.14528311 234.390625 22.3984375 C234.38496521 23.58853424 234.37930542 24.77863098 234.37347412 26.00479126 C234.35113451 29.79527486 234.30093963 33.58480345 234.25 37.375 C234.22993201 39.94920507 234.21168177 42.523425 234.1953125 45.09765625 C234.15127745 51.39876178 234.08438805 57.69931265 234 64 C234.67936615 63.99111755 235.3587323 63.98223511 236.0586853 63.9730835 C243.16452576 63.8842132 250.2702069 63.82410135 257.37646484 63.78027344 C260.0243166 63.7602262 262.67212446 63.73298116 265.31982422 63.69824219 C269.13780588 63.64942256 272.95519936 63.62696119 276.7734375 63.609375 C277.94675629 63.58872986 279.12007507 63.56808472 280.32894897 63.54681396 C290.03876287 63.54419566 298.22867877 65.53492168 305.46875 72.296875 C319.58832943 88.00130518 314 106.43293353 314 128 C176.72 128 39.44 128 -102 128 C-102 81.41477273 -102 81.41477273 -93.703125 72.53125 C-87.5094551 66.96262936 -80.58596506 63.73490514 -72.17822266 63.77294922 C-70.49715927 63.77317581 -70.49715927 63.77317581 -68.78213501 63.77340698 C-66.99118912 63.78889084 -66.99118912 63.78889084 -65.1640625 63.8046875 C-63.92957367 63.8075174 -62.69508484 63.81034729 -61.42318726 63.81326294 C-57.49035851 63.82443478 -53.55775963 63.84953436 -49.625 63.875 C-46.95443041 63.88616175 -44.28386299 63.89415881 -41.61328125 63.90234375 C-35.07544275 63.92436435 -28.5377378 63.95781241 -22 64 C-22.00888245 63.33680756 -22.01776489 62.67361511 -22.0269165 61.99032593 C-22.11549956 55.07973866 -22.17578015 48.16931304 -22.21972656 41.25830078 C-22.23982563 38.68010912 -22.26710941 36.10196296 -22.30175781 33.52392578 C-22.35034847 29.81531539 -22.37298658 26.10730844 -22.390625 22.3984375 C-22.41127014 21.24822113 -22.43191528 20.09800476 -22.45318604 18.91293335 C-22.45494774 12.61147807 -22.27883437 8.76395187 -18 4 C-12.72867143 -1.00776214 -6.89190982 -0.92775709 0 0 Z " fill="#000000" transform="translate(150,32)"/>
</svg>
