<?xml version="1.0" encoding="UTF-8"?>
<svg version="1.1" xmlns="http://www.w3.org/2000/svg" width="512" height="512">
<path d="M0 0 C0.88779648 -0.00945648 1.77559296 -0.01891296 2.69029236 -0.02865601 C3.64658035 -0.02258331 4.60286835 -0.01651062 5.58813477 -0.01025391 C7.06577049 -0.01455917 7.06577049 -0.01455917 8.57325745 -0.01895142 C10.65707982 -0.02099334 12.7409213 -0.01545456 14.82470703 -0.00292969 C18.01386456 0.01310478 21.20175142 -0.00276555 24.39086914 -0.02197266 C26.41496048 -0.01998991 28.43905103 -0.01614559 30.46313477 -0.01025391 C31.41739853 -0.0163266 32.37166229 -0.02239929 33.35484314 -0.02865601 C34.6912661 -0.01447128 34.6912661 -0.01447128 36.0546875 0 C36.83617661 0.00238678 37.61766571 0.00477356 38.4228363 0.00723267 C41.16178384 0.48824057 42.54679854 1.53666296 44.59204102 3.38818359 C45.51074219 5.46948242 45.51074219 5.46948242 46.13500977 7.84521484 C48.64576276 17.31378508 48.64576276 17.31378508 54.44458008 24.83056641 C58.63538419 26.93291674 63.04636057 27.89285584 67.6105957 28.84960938 C70.43288993 29.6167337 72.6014458 31.16575253 75.02954102 32.76318359 C77.86925582 34.16777371 79.6098339 34.66450785 82.69213867 33.79736328 C85.9471389 32.51395148 89.05671938 31.06146686 92.13671875 29.40136719 C95.6757516 27.51300119 98.08050702 26.41747849 102.13891602 26.18505859 C107.03805839 27.8919996 109.9415632 30.77928112 113.59204102 34.38818359 C114.81745605 35.56840088 114.81745605 35.56840088 116.06762695 36.77246094 C118.72411485 39.35093375 121.34832593 41.9588912 123.96704102 44.57568359 C125.31862305 45.90889648 125.31862305 45.90889648 126.69750977 47.26904297 C127.55731445 48.12691406 128.41711914 48.98478516 129.30297852 49.86865234 C130.07947754 50.64104248 130.85597656 51.41343262 131.65600586 52.20922852 C134.76262034 55.70563889 135.62367506 57.43224237 135.46704102 62.16552734 C134.88287767 65.92694817 133.51360651 68.73144009 131.65771484 72.01806641 C128.37230729 77.87424448 128.37230729 77.87424448 127.88745117 84.38964844 C129.26882186 88.4562814 131.47516939 91.99187035 133.69506836 95.64501953 C135.02526617 98.23010727 135.27275363 100.90963047 135.71704102 103.76318359 C136.710869 107.17256572 137.73055765 108.86148651 140.77954102 110.72558594 C146.195594 113.37487215 151.79205217 115.48408196 157.50073242 117.41186523 C159.59204102 118.38818359 159.59204102 118.38818359 161.59204102 121.38818359 C161.86619568 123.43040466 161.86619568 123.43040466 161.8984375 125.79614258 C161.9144249 126.68393906 161.93041229 127.57173553 161.94688416 128.48643494 C161.95492821 129.92086693 161.95492821 129.92086693 161.96313477 131.38427734 C161.97216324 132.36936783 161.98119171 133.35445831 161.99049377 134.36940002 C162.00500354 136.45318559 162.01388481 138.5370168 162.01757812 140.62084961 C162.02948378 143.81034916 162.0786706 146.99792007 162.12915039 150.18701172 C162.13861343 152.21109081 162.14584903 154.23518179 162.15063477 156.25927734 C162.17993324 157.69067299 162.17993324 157.69067299 162.20982361 159.15098572 C162.16483777 165.74556664 162.16483777 165.74556664 159.32275391 168.93408203 C156.95077317 170.19715913 154.93347871 171.1243577 152.34204102 171.78271484 C143.0753904 174.26398432 143.0753904 174.26398432 136.51391602 180.72021484 C135.69809469 183.36075655 135.04440669 185.81436285 134.50219727 188.50146484 C133.54378971 192.59423529 131.99700779 195.16617594 129.77954102 198.70068359 C128.19990241 201.89155357 127.26181004 204.04811588 128.13110352 207.57568359 C129.3795666 210.83254382 130.83317862 213.89810394 132.52832031 216.94604492 C132.92446533 217.6655835 133.32061035 218.38512207 133.72875977 219.12646484 C134.10734131 219.75593018 134.48592285 220.38539551 134.87597656 221.03393555 C135.9782125 224.65782273 135.7411174 227.83880146 134.59204102 231.38818359 C132.85749039 234.02517928 130.72704894 236.09748367 128.43969727 238.25927734 C127.8243663 238.86707535 127.20903534 239.47487335 126.57505798 240.10108948 C124.61742737 242.02634283 122.63654741 243.92556833 120.65454102 245.82568359 C119.32552177 247.12814513 117.99803013 248.43216735 116.67211914 249.73779297 C105.92059378 260.26664932 105.92059378 260.26664932 101.47485352 260.67333984 C96.09280676 260.27807886 92.14970552 258.15698719 87.37719727 255.78857422 C83.4021539 253.88722301 83.4021539 253.88722301 79.08422852 253.45849609 C75.59640921 254.75959483 72.21781928 256.26283799 68.84204102 257.82568359 C63.13099169 260.40804277 57.81787169 262.38760366 51.59204102 263.38818359 C51.42188477 263.99404297 51.25172852 264.59990234 51.07641602 265.22412109 C49.75752691 269.78411003 48.3490931 274.30489497 46.71704102 278.76318359 C46.43086914 279.55466797 46.14469727 280.34615234 45.84985352 281.16162109 C44.12513033 284.21470251 42.58711986 285.51110584 39.59204102 287.38818359 C36.42093875 287.95233714 33.30548667 287.90176606 30.09204102 287.84912109 C29.17874023 287.84820465 28.26543945 287.84728821 27.32446289 287.84634399 C25.39797757 287.8403155 23.4715013 287.82459209 21.54516602 287.79980469 C18.60210494 287.76330839 15.66030477 287.75878549 12.71704102 287.75927734 C10.84203018 287.74944491 8.96702783 287.73778736 7.09204102 287.72412109 C6.21483398 287.72189545 5.33762695 287.7196698 4.43383789 287.71737671 C0.05111986 287.64953924 -3.42064479 287.43597175 -7.40795898 285.38818359 C-7.96483398 286.15001953 -8.52170898 286.91185547 -9.09545898 287.69677734 C-25.31843485 309.64712138 -44.9300032 324.75828994 -72.2734375 329.93017578 C-98.47466075 333.75862775 -123.81368431 327.8556418 -145.25561523 312.32568359 C-166.45729953 295.626748 -177.44226519 274.74027589 -182.09545898 248.51318359 C-184.47506475 224.26145679 -178.63747628 199.33248788 -163.34545898 180.01318359 C-162.03806829 178.46718167 -160.72606379 176.92506098 -159.40795898 175.38818359 C-158.7234668 174.48712891 -158.7234668 174.48712891 -158.02514648 173.56787109 C-150.37189988 163.71488894 -138.63024141 156.51545938 -127.40795898 151.38818359 C-126.74795898 151.38818359 -126.08795898 151.38818359 -125.40795898 151.38818359 C-125.42890625 150.53587158 -125.44985352 149.68355957 -125.47143555 148.80541992 C-125.53981142 145.62788926 -125.58985636 142.45073489 -125.62768555 139.27270508 C-125.64773889 137.90018336 -125.67498927 136.52774642 -125.7097168 135.15551758 C-125.7585045 133.17746315 -125.77884775 131.19877241 -125.79858398 129.22021484 C-125.81953125 128.03145752 -125.84047852 126.8427002 -125.86206055 125.61791992 C-125.31111425 121.69938845 -124.21126061 120.13836232 -121.40795898 117.38818359 C-119.33325195 116.17797852 -119.33325195 116.17797852 -117.15014648 115.36865234 C-116.35995117 115.06894531 -115.56975586 114.76923828 -114.75561523 114.46044922 C-113.93963867 114.16847656 -113.12366211 113.87650391 -112.28295898 113.57568359 C-111.45924805 113.264375 -110.63553711 112.95306641 -109.78686523 112.63232422 C-103.7597447 110.38818359 -103.7597447 110.38818359 -101.40795898 110.38818359 C-101.12952148 108.65568359 -101.12952148 108.65568359 -100.84545898 106.88818359 C-99.6309951 101.28021802 -97.28336173 96.24408273 -94.88427734 91.06201172 C-91.76167912 85.05443195 -91.76167912 85.05443195 -91.99511719 78.61865234 C-92.88355619 76.54810514 -93.84390118 74.5313886 -94.84545898 72.51318359 C-99.49564135 63.14195894 -99.49564135 63.14195894 -98.40795898 57.38818359 C-96.4311115 54.37253648 -93.94409401 51.93757657 -91.40795898 49.38818359 C-90.57925293 48.50404785 -89.75054687 47.61991211 -88.89672852 46.70898438 C-86.59625843 44.25894427 -84.27129766 41.84088811 -81.91992188 39.44018555 C-80.94819498 38.44161627 -79.98370798 37.43595366 -79.02636719 36.42358398 C-70.02953949 26.91920373 -70.02953949 26.91920373 -65.27514648 25.95068359 C-61.08050393 26.42522901 -58.46929424 27.55712571 -54.81201172 29.55297852 C-47.80631714 33.44542324 -47.80631714 33.44542324 -40.03588867 34.03466797 C-35.48828123 32.47294168 -31.53508131 30.05670643 -27.50341797 27.47558594 C-25.08851086 26.22241149 -22.84711237 25.77373098 -20.18920898 25.22021484 C-17.13396402 24.37788232 -15.79354363 23.91813435 -13.91210938 21.33227539 C-12.73821156 18.71730275 -11.82048531 16.12522981 -10.97045898 13.38818359 C-10.35320394 11.57347933 -9.72974551 9.76087034 -9.09936523 7.95068359 C-8.84356689 7.14759766 -8.58776855 6.34451172 -8.32421875 5.51708984 C-6.51822842 1.32091728 -4.52731662 0.01384117 0 0 Z M6.59204102 16.38818359 C3.65059238 22.05121867 1.30887861 27.71216068 -0.77124023 33.75146484 C-2.9676893 37.2898971 -5.61159228 38.15818902 -9.40795898 39.38818359 C-10.37390991 39.72233276 -10.37390991 39.72233276 -11.359375 40.06323242 C-12.70687754 40.52570942 -14.05674202 40.98135246 -15.40869141 41.43066406 C-23.0054946 43.96089457 -29.70595708 46.90807235 -36.57592773 51.06787109 C-40.47766559 52.88688819 -43.26675325 53.11384535 -47.38037109 51.71972656 C-49.54677313 50.83534805 -51.66398593 49.88061401 -53.78295898 48.88818359 C-54.51901367 48.55431641 -55.25506836 48.22044922 -56.01342773 47.87646484 C-57.81618096 47.05703156 -59.61272798 46.2239681 -61.40795898 45.38818359 C-67.81865186 50.65919773 -73.59386411 56.47946511 -79.40795898 62.38818359 C-78.99352371 63.65974636 -78.57620601 64.9303695 -78.15795898 66.20068359 C-77.89112305 67.01923828 -77.62428711 67.83779297 -77.34936523 68.68115234 C-76.7039118 70.53716576 -75.99981151 72.37350932 -75.24780273 74.18896484 C-74.8675293 75.12095703 -74.48725586 76.05294922 -74.09545898 77.01318359 C-73.72807617 77.87169922 -73.36069336 78.73021484 -72.98217773 79.61474609 C-71.6843997 85.88292574 -75.33720982 91.46636681 -78.22045898 96.82568359 C-81.52165936 103.12614529 -83.91181286 109.35764098 -85.68457031 116.24731445 C-86.42999279 118.98449459 -87.08752018 121.04315476 -89.03686523 123.14208984 C-92.44456109 124.93295471 -95.97045336 126.23073716 -99.59545898 127.51318359 C-104.35808219 128.88021032 -104.35808219 128.88021032 -108.40795898 131.38818359 C-108.4806764 133.74131914 -108.49166766 136.09652028 -108.47045898 138.45068359 C-108.46143555 139.74103516 -108.45241211 141.03138672 -108.44311523 142.36083984 C-108.43151367 143.35986328 -108.41991211 144.35888672 -108.40795898 145.38818359 C-107.17045898 145.22318359 -105.93295898 145.05818359 -104.65795898 144.88818359 C-90.22966877 143.49848992 -76.51900523 144.11952316 -62.40795898 147.38818359 C-61.42182617 147.60087891 -60.43569336 147.81357422 -59.41967773 148.03271484 C-57.41184505 148.46675644 -55.40896049 148.92366539 -53.40795898 149.38818359 C-53.37057617 148.22802734 -53.33319336 147.06787109 -53.29467773 145.87255859 C-52.42515012 123.43826441 -45.76353371 104.90865969 -29.15795898 89.20068359 C-12.50714398 75.107161 7.28287319 70.96865705 28.59204102 72.38818359 C46.84542205 74.56337486 63.96999522 84.73111935 75.34204102 99.01318359 C87.33240084 115.92431833 91.996699 135.04465096 89.29907227 155.62304688 C86.21045742 173.58599907 76.5120061 190.6636829 61.59204102 201.38818359 C50.046894 208.84942916 37.98702833 214.54980454 23.97875977 214.48583984 C22.7315918 214.48261719 21.48442383 214.47939453 20.19946289 214.47607422 C18.90588867 214.46769531 17.61231445 214.45931641 16.27954102 214.45068359 C14.31017578 214.44391602 14.31017578 214.44391602 12.30102539 214.43701172 C9.06465091 214.42524308 5.82836924 214.40880119 2.59204102 214.38818359 C2.66310059 215.05648193 2.73416016 215.72478027 2.80737305 216.41333008 C4.08621066 228.85691113 4.91726868 240.51577651 3.04907227 252.90380859 C2.19266482 259.43300039 3.13131814 264.23637641 5.59204102 270.38818359 C13.84204102 270.38818359 22.09204102 270.38818359 30.59204102 270.38818359 C34.70339129 261.40309662 34.70339129 261.40309662 38.11157227 252.26318359 C40.51192094 249.22316417 44.02636107 248.52971278 47.59204102 247.38818359 C48.85700114 246.94050091 50.12010576 246.4875335 51.38110352 246.02880859 C52.0056543 245.80322266 52.63020508 245.57763672 53.27368164 245.34521484 C53.91499023 245.11189453 54.55629883 244.87857422 55.21704102 244.63818359 C55.90217773 244.38939453 56.58731445 244.14060547 57.29321289 243.88427734 C61.48036754 242.31747109 65.38072108 240.5098967 69.30102539 238.36474609 C77.75165579 233.75698688 77.75165579 233.75698688 81.71704102 234.63818359 C83.52172852 235.35693359 83.52172852 235.35693359 85.59204102 236.38818359 C87.67016774 237.31659346 89.75391397 238.23248994 91.84204102 239.13818359 C92.83719727 239.60740234 93.83235352 240.07662109 94.85766602 240.56005859 C97.47730933 241.65618314 97.47730933 241.65618314 99.53344727 240.65722656 C101.77014878 239.27838709 103.42274476 237.78453668 105.26391602 235.91162109 C105.9277832 235.24130859 106.59165039 234.57099609 107.27563477 233.88037109 C107.95754883 233.18169922 108.63946289 232.48302734 109.34204102 231.76318359 C110.03942383 231.05677734 110.73680664 230.35037109 111.45532227 229.62255859 C113.17216589 227.88219656 114.88415934 226.13733379 116.59204102 224.38818359 C115.80290159 222.30389166 115.01063138 220.2207849 114.21704102 218.13818359 C113.77618164 216.97802734 113.33532227 215.81787109 112.88110352 214.62255859 C111.73361398 211.52804828 111.73361398 211.52804828 110.42797852 209.34130859 C109.2012444 206.47510739 109.24935908 204.49114965 109.59204102 201.38818359 C110.73587646 198.77694634 111.91282399 196.37359396 113.27954102 193.88818359 C116.60638753 187.56857028 119.22987547 181.35816157 121.48657227 174.57177734 C121.85137695 173.52119141 122.21618164 172.47060547 122.59204102 171.38818359 C122.92204102 170.19193359 123.25204102 168.99568359 123.59204102 167.76318359 C126.54757647 162.77571751 130.47169236 161.79819006 135.77954102 159.95068359 C140.63672852 158.18724609 140.63672852 158.18724609 145.59204102 156.38818359 C145.59204102 148.13818359 145.59204102 139.88818359 145.59204102 131.38818359 C143.77704102 130.64568359 141.96204102 129.90318359 140.09204102 129.13818359 C137.92505668 128.22226814 135.75837817 127.30562871 133.59204102 126.38818359 C132.36807617 125.90478516 132.36807617 125.90478516 131.11938477 125.41162109 C130.42973633 125.11513672 129.74008789 124.81865234 129.02954102 124.51318359 C128.43012695 124.26826172 127.83071289 124.02333984 127.21313477 123.77099609 C124.6145292 121.55435424 123.73988632 118.51476256 122.59204102 115.38818359 C122.14344727 114.17001953 121.69485352 112.95185547 121.23266602 111.69677734 C121.00716064 111.06900391 120.78165527 110.44123047 120.54931641 109.79443359 C118.5468679 104.22047959 116.43392357 98.89550053 113.61914062 93.67724609 C108.5588964 84.29190829 108.5588964 84.29190829 109.71704102 79.52490234 C111.4242591 75.35593675 113.41717663 71.32855727 115.51000977 67.34130859 C116.89146653 64.55469451 116.89146653 64.55469451 115.87695312 62.43310547 C114.48428354 60.2166889 112.98154347 58.55074533 111.11547852 56.71630859 C110.44516602 56.05244141 109.77485352 55.38857422 109.08422852 54.70458984 C108.38555664 54.02267578 107.68688477 53.34076172 106.96704102 52.63818359 C106.26063477 51.94080078 105.55422852 51.24341797 104.82641602 50.52490234 C103.08605398 48.80805871 101.34119121 47.09606527 99.59204102 45.38818359 C94.41550298 47.02652327 89.60185419 49.16488494 84.68969727 51.46240234 C77.52487571 53.60371724 71.853779 50.32473239 65.59204102 47.13818359 C58.35418365 43.55391627 51.26361421 40.75914077 43.49829102 38.55615234 C40.16561094 37.21680914 39.28782382 36.51253495 37.59204102 33.38818359 C36.44517102 30.69405918 35.44342692 27.96056838 34.46704102 25.20068359 C33.10001429 20.43806038 33.10001429 20.43806038 30.59204102 16.38818359 C28.81132855 16.30092136 27.02720961 16.28119318 25.24438477 16.29052734 C24.16479492 16.29375 23.08520508 16.29697266 21.97290039 16.30029297 C20.2684375 16.31286133 20.2684375 16.31286133 18.52954102 16.32568359 C16.81927734 16.33245117 16.81927734 16.33245117 15.07446289 16.33935547 C12.2469375 16.35118612 9.41951462 16.3676695 6.59204102 16.38818359 Z M-22.40795898 106.38818359 C-22.98288086 106.94119141 -23.55780273 107.49419922 -24.15014648 108.06396484 C-33.09906165 117.40700322 -36.7677252 130.72451048 -36.72045898 143.32568359 C-36.73657227 144.18097656 -36.75268555 145.03626953 -36.76928711 145.91748047 C-36.77485263 153.2138769 -35.80320791 158.78002365 -30.77124023 164.25927734 C-29.76448242 165.10619141 -28.75772461 165.95310547 -27.72045898 166.82568359 C-26.63555984 167.77031658 -25.55353732 168.71826313 -24.47436523 169.66943359 C-23.94858887 170.12962891 -23.4228125 170.58982422 -22.88110352 171.06396484 C-17.40789837 175.98386288 -13.33918563 181.43784852 -9.53295898 187.70068359 C-5.73966289 193.59303682 -2.13617905 195.77478388 4.59204102 197.38818359 C5.20982422 197.55962891 5.82760742 197.73107422 6.46411133 197.90771484 C17.46070349 200.39065351 30.48581377 199.13670459 40.59204102 194.38818359 C41.37450195 194.03755859 42.15696289 193.68693359 42.96313477 193.32568359 C57.32374176 186.1578243 67.19504155 173.12116121 72.34204102 158.21630859 C76.25364121 143.76511899 73.42891577 128.40629738 66.50219727 115.40380859 C58.02691184 102.02360338 45.73612942 92.88398804 30.27172852 89.00927734 C9.95943484 85.58076917 -7.94203346 91.74078589 -22.40795898 106.38818359 Z M-140.40795898 180.38818359 C-141.08987305 180.97857422 -141.77178711 181.56896484 -142.47436523 182.17724609 C-156.7227275 195.28239339 -164.29017265 214.43432415 -165.62280273 233.45458984 C-166.27568314 254.73849119 -158.90136567 273.30759218 -144.94702148 289.18896484 C-131.63753038 303.29858665 -113.92698263 312.86610758 -94.24389648 313.72412109 C-73.10653955 314.07749868 -53.39353927 308.90919805 -37.40795898 294.38818359 C-36.67448242 293.74623047 -35.94100586 293.10427734 -35.18530273 292.44287109 C-19.85939843 278.19477481 -12.55916932 258.96895304 -11.44702148 238.35302734 C-11.2289809 216.22190838 -20.31068915 196.89549687 -35.52905273 181.20068359 C-45.29846789 172.02281101 -56.62500568 166.17856711 -69.40795898 162.38818359 C-70.63192383 162.01886719 -70.63192383 162.01886719 -71.88061523 161.64208984 C-96.04733034 155.63150032 -122.35969122 163.8738554 -140.40795898 180.38818359 Z " fill="#000000" transform="translate(342.407958984375,7.61181640625)"/>
<path d="M0 0 C5.87549117 2.10742828 11.79714873 4.06452251 17.74023438 5.97216797 C18.72797852 6.29233887 19.71572266 6.61250977 20.73339844 6.94238281 C27.33841208 9.03814058 33.97576 10.67018736 40.74023438 12.15966797 C50.94074109 14.44514103 59.10503783 17.43717685 65.11914062 26.48388672 C69.54616089 34.15446638 69.62785071 40.73244433 69.30273438 49.53466797 C69.30273438 50.52466797 69.30273438 51.51466797 69.30273438 52.53466797 C81.45726131 45.74943373 93.53273393 38.84953213 105.49023438 31.72216797 C114.39818117 26.41923635 123.32887974 21.16125741 132.32095337 16.00210571 C134.04507327 15.01244124 135.76708958 14.01911481 137.48901367 13.02563477 C173.55718222 -7.59436247 173.55718222 -7.59436247 194.29101562 -2.77001953 C202.89938901 0.3389226 208.11901544 5.38658918 212.35742188 13.38623047 C215.83689103 21.29411491 215.64070539 32.08210969 212.61523438 40.09716797 C209.29156372 47.77033356 203.85571943 51.85383843 196.92773438 56.03466797 C196.10192871 56.54457275 195.27612305 57.05447754 194.42529297 57.57983398 C191.72462244 59.2429261 189.01452878 60.88978565 186.30273438 62.53466797 C184.42752088 63.67884939 182.55252322 64.82338462 180.67773438 65.96826172 C176.8046109 68.3303015 172.92767271 70.68594334 169.04882812 73.03857422 C163.67803643 76.30027968 158.32970662 79.59699491 152.99023438 82.90966797 C145.20794871 87.73750587 137.41584165 92.54898193 129.61523438 97.34716797 C128.52726562 98.01643311 127.43929688 98.68569824 126.31835938 99.37524414 C121.8625213 102.11591219 117.40635045 104.85603892 112.95019531 107.59619141 C110.72822843 108.96260692 108.50638523 110.32922357 106.28466797 111.69604492 C104.10065809 113.03924175 101.91609372 114.38153745 99.73095703 115.72290039 C94.62298109 118.86127873 89.52689756 122.0155265 84.45898438 125.21826172 C65.28540321 137.31052817 48.8098023 145.52535194 25.57006836 141.96240234 C22.55027527 141.26652496 19.5636264 140.50640298 16.58346558 139.65679932 C14.51136068 139.06763334 12.43227079 138.51151964 10.34985352 137.95996094 C1.76045402 135.66568959 -6.78786476 133.22757074 -15.33322811 130.77527523 C-20.98800389 129.15426189 -26.64981712 127.55913437 -32.31533146 125.9760828 C-36.59088325 124.77887375 -40.85485189 123.54797141 -45.11339951 122.2916975 C-47.81556725 121.50269933 -50.52569852 120.74438806 -53.23866653 119.99346733 C-55.11725685 119.46358536 -56.98546663 118.89732481 -58.8531189 118.33009338 C-64.9635456 116.67075007 -68.73956188 115.97731866 -74.54272461 118.85253906 C-75.95098159 119.70923408 -77.34607283 120.59053234 -78.69726562 121.53466797 C-78.27574219 122.28490234 -77.85421875 123.03513672 -77.41992188 123.80810547 C-73.1901262 131.71035903 -70.00401208 138.84103357 -72.69726562 147.78466797 C-76.4325705 155.7708971 -85.08160744 159.7454873 -92.44726562 163.84716797 C-93.39214844 164.3840625 -94.33703125 164.92095703 -95.31054688 165.47412109 C-103.12249528 169.88014889 -108.65864013 171.17085276 -117.69726562 170.53466797 C-127.61515636 167.41236903 -132.17015083 156.54500482 -136.75976562 148.03466797 C-137.41877586 146.82807573 -138.07878578 145.62202901 -138.73974609 144.41650391 C-139.74939682 142.57484661 -140.75851586 140.73292536 -141.76464844 138.88934326 C-144.89434631 133.15583624 -148.09805674 127.46553447 -151.32226562 121.78466797 C-152.39128852 119.89795629 -153.46029898 118.01123756 -154.52929688 116.12451172 C-155.05346191 115.20009277 -155.57762695 114.27567383 -156.11767578 113.32324219 C-157.69280165 110.54254858 -159.2640661 107.75971082 -160.83398438 104.97607422 C-165.51082536 96.68580222 -170.1951161 88.40038408 -174.93164062 80.14404297 C-175.29150558 79.51628464 -175.65137054 78.88852631 -176.0221405 78.241745 C-177.78452105 75.16760815 -179.54904508 72.09474332 -181.31762695 69.02416992 C-183.12733843 65.86994567 -184.91963077 62.70706248 -186.69726562 59.53466797 C-187.13731934 58.75671875 -187.57737305 57.97876953 -188.03076172 57.17724609 C-191.39262477 50.92803061 -191.58464923 45.47074799 -190.69726562 38.53466797 C-186.72488428 29.97876968 -177.9015245 25.7105616 -170.00976562 21.28466797 C-169.06037109 20.74326172 -168.11097656 20.20185547 -167.1328125 19.64404297 C-159.60887761 15.38420722 -153.20812044 12.73817551 -144.47460938 15.14794922 C-138.8685794 17.59991223 -136.00261457 21.54251854 -132.69726562 26.53466797 C-131.70169384 27.871311 -130.70224458 29.20508341 -129.69726562 30.53466797 C-128.81095459 30.01634399 -128.81095459 30.01634399 -127.90673828 29.48754883 C-122.26363575 26.18861252 -116.61768124 22.89461568 -110.96868896 19.60577393 C-108.06646376 17.91587959 -105.16560693 16.22373919 -102.26660156 14.52832031 C-75.37348867 -1.19613161 -75.37348867 -1.19613161 -63.69726562 -6.46533203 C-62.73046875 -6.91521484 -61.76367188 -7.36509766 -60.76757812 -7.82861328 C-39.87204963 -16.25049526 -19.75499705 -7.10503161 0 0 Z M-90.85351562 27.66357422 C-97.11719349 31.3948667 -103.44181322 35.02138443 -109.75976562 38.65966797 C-110.94540497 39.34283558 -112.13103347 40.02602199 -113.31665039 40.70922852 C-116.10983245 42.3183285 -118.90335903 43.92682644 -121.69726562 45.53466797 C-120.44611741 49.59143251 -118.95202182 53.15949302 -116.86132812 56.85107422 C-116.29728271 57.85267578 -115.7332373 58.85427734 -115.15209961 59.88623047 C-114.54825439 60.94583984 -113.94440918 62.00544922 -113.32226562 63.09716797 C-112.70101807 64.19673828 -112.07977051 65.29630859 -111.43969727 66.42919922 C-109.53193133 69.80135823 -107.6161413 73.1688201 -105.69726562 76.53466797 C-104.83029053 78.05616455 -104.83029053 78.05616455 -103.94580078 79.60839844 C-101.86569148 83.25605567 -99.78441837 86.90300415 -97.69384766 90.54467773 C-94.64874912 95.84954854 -91.65374736 101.17989337 -88.69726562 106.53466797 C-87.79105469 106.02935547 -86.88484375 105.52404297 -85.95117188 105.00341797 C-84.72122331 104.34619355 -83.49072432 103.6899985 -82.25976562 103.03466797 C-81.66744141 102.70080078 -81.07511719 102.36693359 -80.46484375 102.02294922 C-72.39834836 97.795588 -64.64029596 99.45580621 -56.2019043 101.8137207 C-55.29993317 102.05595367 -54.39796204 102.29818665 -53.46865845 102.54776001 C-50.51451422 103.343939 -47.56498277 104.15596296 -44.61523438 104.96826172 C-42.55286749 105.5273708 -40.49022543 106.08546578 -38.42732239 106.64259338 C-33.01586002 108.10691694 -27.60816239 109.58469202 -22.20117188 111.06542969 C-16.69226986 112.571618 -11.18001347 114.06542046 -5.66796875 115.56005859 C0.52275012 117.2394939 6.71307208 118.92031542 12.90107727 120.60972595 C13.84044632 120.86618393 14.77981537 121.12264191 15.74765015 121.38687134 C17.49958462 121.86542225 19.25141739 122.34434569 21.00312805 122.82371521 C21.7781366 123.03544373 22.55314514 123.24717224 23.35163879 123.46531677 C24.02207623 123.64875358 24.69251368 123.83219038 25.3832674 124.02118587 C26.0166915 124.19063497 26.6501156 124.36008406 27.30273438 124.53466797 C28.3190168 124.80896684 28.3190168 124.80896684 29.35583019 125.08880711 C46.13171023 128.93065429 58.75863882 120.92148215 72.30273438 112.53466797 C73.91987843 111.53980568 75.53706673 110.5450153 77.15429688 109.55029297 C80.63435182 107.40429854 84.10868014 105.24932253 87.58007812 103.08935547 C93.80761083 99.21604108 100.05474173 95.37486182 106.30273438 91.53466797 C114.14354712 86.71333774 121.97897842 81.88362901 129.80273438 77.03466797 C136.43102633 72.92712877 143.06516216 68.82926823 149.70654297 64.74291992 C151.88855134 63.40013306 154.06987157 62.05622731 156.25048828 60.71118164 C161.40892823 57.53184044 166.57316463 54.36456658 171.76454163 51.23936462 C174.16203571 49.79505858 176.55536518 48.34393044 178.94839478 46.89224243 C180.63759747 45.8714235 182.33277467 44.86051165 184.02807617 43.84985352 C185.56782104 42.91459839 185.56782104 42.91459839 187.13867188 41.96044922 C188.04149902 41.41815674 188.94432617 40.87586426 189.87451172 40.31713867 C193.14467782 37.91662764 195.48712473 35.16588725 197.30273438 31.53466797 C197.85607893 26.11827607 197.80559281 21.94567488 194.30273438 17.53466797 C191.84460828 14.66685419 189.85149029 13.69671619 186.02539062 13.29638672 C166.35765376 12.74765397 148.48141711 26.32708367 132.24414062 36.01123047 C124.87870056 40.396271 117.44462368 44.66099131 110.00756836 48.9230957 C104.69883494 51.97220424 99.41646721 55.05283012 94.18554688 58.23388672 C92.72761719 59.11560547 92.72761719 59.11560547 91.24023438 60.01513672 C89.43979558 61.10790305 87.64492786 62.20993495 85.85742188 63.32373047 C77.76105544 68.22483279 68.81690086 71.8299149 59.30273438 72.53466797 C58.32433594 72.61201172 58.32433594 72.61201172 57.32617188 72.69091797 C37.46584013 73.50990072 17.16266453 66.42417723 -1.74304199 61.08282471 C-3.66631493 60.54334959 -5.59437584 60.02103882 -7.52246094 59.49902344 C-8.68616211 59.16918457 -9.84986328 58.8393457 -11.04882812 58.49951172 C-12.07057129 58.2158374 -13.09231445 57.93216309 -14.14501953 57.63989258 C-17.07434718 56.37137658 -18.13173466 55.28720339 -19.69726562 52.53466797 C-20.21951056 48.95355986 -20.14007032 47.23577539 -18.19726562 44.15966797 C-14.31484603 41.63609523 -10.08134596 42.08985638 -5.65628052 42.91546631 C-3.53867475 43.44294885 -1.44999667 44.03258237 0.64257812 44.65185547 C1.79216759 44.97768112 1.79216759 44.97768112 2.96498108 45.31008911 C5.39299737 46.0001447 7.81664784 46.70422901 10.24023438 47.40966797 C12.66096209 48.10517646 15.08251906 48.79766026 17.504776 49.48782349 C19.00408083 49.91597704 20.50240598 50.34758362 21.99949646 50.78341675 C34.02308614 54.54735134 34.02308614 54.54735134 46.30273438 53.53466797 C50.42369286 50.1863892 52.11676969 48.10208464 52.74023438 42.84716797 C52.60976317 38.6183661 51.56611599 36.07117786 48.59570312 33.04638672 C44.55607226 30.38312071 39.9686488 29.66652051 35.30273438 28.65966797 C29.49696575 27.3987717 23.81348873 25.77223096 18.11523438 24.09716797 C16.99511963 23.77047119 15.87500488 23.44377441 14.72094727 23.10717773 C7.6758245 20.99869894 0.76300915 18.65752159 -6.13867188 16.12451172 C-6.95011154 15.82912003 -7.76155121 15.53372833 -8.59757996 15.22938538 C-12.60848205 13.76759035 -16.60731607 12.2821549 -20.5925293 10.75170898 C-47.73477513 0.60455737 -67.67944949 13.83506212 -90.85351562 27.66357422 Z M-157.48632812 34.15966797 C-158.42734375 34.70107422 -159.36835938 35.24248047 -160.33789062 35.80029297 C-161.32273437 36.37263672 -162.30757812 36.94498047 -163.32226562 37.53466797 C-164.31484375 38.10701172 -165.30742187 38.67935547 -166.33007812 39.26904297 C-168.78804654 40.68710167 -171.24363411 42.10912259 -173.69726562 43.53466797 C-173.16841148 47.85030628 -172.2065294 50.88461235 -169.95898438 54.59716797 C-169.39228027 55.54744873 -168.82557617 56.49772949 -168.24169922 57.47680664 C-167.32251709 58.990448 -167.32251709 58.990448 -166.38476562 60.53466797 C-165.09701525 62.69588479 -163.81191039 64.85867988 -162.52929688 67.02294922 C-161.88299316 68.1130127 -161.23668945 69.20307617 -160.57080078 70.32617188 C-157.80095618 75.06963001 -155.1770509 79.88663796 -152.57226562 84.72216797 C-147.77049088 93.61172548 -142.81291937 102.39968677 -137.77929688 111.15966797 C-134.47315801 116.91428625 -131.20851409 122.69202298 -127.94726562 128.47216797 C-123.22342418 136.84147614 -118.47936594 145.19849915 -113.69726562 153.53466797 C-107.8787408 153.07140962 -103.82501528 150.613091 -98.94726562 147.65966797 C-98.18027344 147.21236328 -97.41328125 146.76505859 -96.62304688 146.30419922 C-92.06125797 143.60678738 -92.06125797 143.60678738 -88.69726562 139.53466797 C-97.12781984 124.45353399 -105.58968705 109.3908745 -114.1015625 94.35546875 C-115.68242373 91.5609047 -117.26060706 88.76484638 -118.83789062 85.96826172 C-122.11796729 80.15344226 -125.40635718 74.3433627 -128.69726562 68.53466797 C-129.3746856 67.3375714 -130.05209401 66.14046828 -130.72949219 64.94335938 C-132.51035462 61.79734621 -134.29530215 58.65367688 -136.08261108 55.51132202 C-136.77308335 54.29618135 -137.46243221 53.08040149 -138.15054321 51.86392212 C-143.85111428 41.32382098 -143.85111428 41.32382098 -150.69726562 31.53466797 C-153.51008871 31.53466797 -155.05572733 32.75401932 -157.48632812 34.15966797 Z " fill="#000000" transform="translate(198.697265625,333.46533203125)"/>
<path d="M0 0 C1.9375 1.5625 1.9375 1.5625 3 4 C3.22886309 6.72034996 3.13702696 9.25946073 3 12 C3.92619141 12.20302734 3.92619141 12.20302734 4.87109375 12.41015625 C14.00695237 14.7323608 20.35431293 19.00934639 25.5625 26.9375 C28.12212365 31.62182517 28.9098583 34.72282188 28 40 C26.5 42.5 26.5 42.5 24 44 C19.00390508 44.79303094 19.00390508 44.79303094 16 44 C13.91485913 41.96335078 12.56114014 40.37400966 11 38 C7.27604707 32.86698379 4.23168181 30.12712158 -2 29 C-8.33191495 28.76512217 -13.11315606 29.72401155 -18 34 C-20.34223128 37.19395175 -20.5551413 40.1140109 -20 44 C-15.16582365 50.70547043 -7.77750096 51.58775462 -0.16113281 53.37573242 C11.16262593 56.06966991 20.01689414 59.11861344 27 69 C31.37402334 76.43583967 32.02715992 83.65721537 29.875 92 C27.01493804 100.65890317 21.74386655 104.74203991 13.76953125 108.84375 C10.07374988 110.38669963 6.98703744 110.84954576 3 111 C3.05800781 111.60328125 3.11601562 112.2065625 3.17578125 112.828125 C3.54363757 119.34443704 3.54363757 119.34443704 0.875 122.5625 C-2.50839538 124.25419769 -4.26824414 124.62195931 -8 124 C-10.8125 122.5625 -10.8125 122.5625 -13 120 C-13.70186779 117.0015795 -13.92775564 114.0736691 -14 111 C-15.2065625 110.9071875 -15.2065625 110.9071875 -16.4375 110.8125 C-24.36960132 109.00342426 -31.02094731 104.39987418 -36 98 C-39.15806841 92.96308076 -42.0175617 88.1053702 -41 82 C-40.14874336 79.44623008 -39.431788 78.33583511 -37.3125 76.6875 C-33.88676201 75.66903735 -31.44183926 76.13954018 -28 77 C-24.90064594 79.21382433 -23.68964721 81.61070146 -22.1875 85 C-20.03411729 89.58875601 -17.56198913 90.92636858 -13 93 C-6.73407062 95.08864313 -0.08753574 94.79478953 6 92.25 C10.3917135 90.01836713 10.3917135 90.01836713 13 86 C13.08204835 81.48734059 12.55514522 79.61065974 9.5 76.25 C4.02492348 72.30434626 -2.4185167 71.13066555 -8.88745117 69.62402344 C-19.41757145 67.13661262 -28.19256317 63.8183057 -35 55 C-38.70652567 48.90599694 -38.80380204 41.93055979 -38 35 C-36.17026232 27.99584286 -33.07311287 21.66347454 -26.85546875 17.59765625 C-23.6116969 15.74176688 -20.69536214 14.17753927 -17.0625 13.25 C-14.82053467 12.2009413 -14.82053467 12.2009413 -14.36328125 9.98828125 C-14.04330693 8.39864881 -13.77176727 6.79832604 -13.5546875 5.19140625 C-12.89596342 2.58898226 -12.09692248 1.64041544 -10 0 C-6.20519658 -1.26493447 -3.87641726 -0.89988258 0 0 Z " fill="#000000" transform="translate(259,183)"/>
<path d="M0 0 C2.14404297 1.52709961 2.14404297 1.52709961 4 4 C4.12787225 6.81129793 4.0449881 9.22094006 3.765625 11.9921875 C1.95091961 28.82307103 1.95091961 28.82307103 7.33691406 44.02832031 C13.07913536 48.60804097 19.52748922 51.44034381 26.47216797 53.734375 C29.63914468 55.32000444 30.57612906 56.7925051 32 60 C31.79325616 65.99557135 31.79325616 65.99557135 29.68212891 68.66870117 C27.22274826 70.61514568 24.8591089 70.69822704 21.79980469 70.59228516 C15.52548643 69.26498344 10.06345407 65.45798788 4.625 62.1875 C3.34342711 61.4403751 2.06088079 60.69491736 0.77734375 59.95117188 C-11.39114784 52.82655649 -11.39114784 52.82655649 -13 48 C-13.1001007 46.63036928 -13.14818887 45.25652361 -13.16113281 43.88330078 C-13.17074036 43.05879425 -13.1803479 42.23428772 -13.19024658 41.38479614 C-13.19449646 40.49726654 -13.19874634 39.60973694 -13.203125 38.6953125 C-13.20882507 37.77918182 -13.21452515 36.86305115 -13.22039795 35.91915894 C-13.22984327 33.98078566 -13.23638007 32.04239636 -13.24023438 30.10400391 C-13.24994011 27.14326898 -13.28096786 24.18322827 -13.3125 21.22265625 C-13.3190303 19.33854578 -13.32428066 17.45443036 -13.328125 15.5703125 C-13.3404718 14.68683136 -13.3528186 13.80335022 -13.36553955 12.89309692 C-13.34828394 8.11612974 -13.15171362 4.85859522 -10 1 C-6.87057535 -0.56471233 -3.38917777 -0.69701958 0 0 Z " fill="#000000" transform="translate(365,105)"/>
<path d="M0 0 C2.4375 2.1875 2.4375 2.1875 4 5 C4 8.63075827 3.41176127 10.42048414 1.3125 13.375 C-1 15 -1 15 -3.9375 15.5625 C-8.08574477 14.80057749 -9.51397551 13.36344489 -12 10 C-12.57210224 6.49587381 -12.44040698 4.77595516 -10.6875 1.6875 C-7.35721313 -1.64278687 -4.26806714 -1.21944775 0 0 Z " fill="#000000" transform="translate(48,378)"/>
</svg>
