<?xml version="1.0" encoding="UTF-8"?>
<svg version="1.1" xmlns="http://www.w3.org/2000/svg" width="512" height="512">
<path d="M0 0 C1.66330605 -0.01485695 1.66330605 -0.01485695 3.36021423 -0.03001404 C4.56710907 -0.02551239 5.77400391 -0.02101074 7.01747131 -0.01637268 C8.296035 -0.02323593 9.57459869 -0.03009918 10.89190674 -0.03717041 C14.39197481 -0.05509243 17.89179204 -0.0539353 21.39189219 -0.04822803 C24.31682719 -0.04513467 27.2417141 -0.05123027 30.16664225 -0.05726677 C37.06845679 -0.07130732 43.97014753 -0.06975476 50.8719635 -0.05836487 C57.98562094 -0.0468846 65.09890134 -0.06095856 72.2125091 -0.08776134 C78.32648047 -0.1099328 84.44033362 -0.11655248 90.55434233 -0.11068493 C94.2031387 -0.1073175 97.8516934 -0.10971587 101.50045586 -0.12693596 C105.57017188 -0.14530495 109.63915637 -0.13120332 113.70887756 -0.11402893 C115.51618347 -0.12853088 115.51618347 -0.12853088 117.36000061 -0.14332581 C123.6776353 -0.08743931 127.65466971 0.07938484 132.4278717 4.38768005 C136.71749452 9.05973078 135.80562144 15.06531181 135.72084045 21.0322113 C135.71659561 22.15713486 135.71235077 23.28205841 135.70797729 24.44107056 C135.69120861 28.02768567 135.65355859 31.61373527 135.6153717 35.20018005 C135.60032258 37.63441672 135.58663457 40.06866221 135.57435608 42.50291443 C135.54131096 48.46469534 135.49112899 54.42614729 135.4278717 60.38768005 C136.4293222 60.37879761 137.43077271 60.36991516 138.46257019 60.36076355 C147.90840197 60.27961489 157.35416286 60.21968451 166.80026436 60.18043137 C171.65642469 60.1595723 176.51230323 60.13128535 181.36830139 60.08592224 C186.05618427 60.04240455 190.74379638 60.0185303 195.43186569 60.00817108 C197.21882768 60.00079034 199.00577514 59.98637735 200.79262161 59.96475983 C203.29912889 59.93564661 205.80452285 59.93172728 208.31117249 59.93357849 C209.04701065 59.91919739 209.78284882 59.90481628 210.54098511 59.88999939 C215.64178497 59.93066012 218.4854111 61.20708436 222.4278717 64.38768005 C226.33025122 68.86818986 225.89541028 73.83012972 225.8966217 79.48143005 C225.90423523 80.46454163 225.91184875 81.4476532 225.91969299 82.46055603 C225.9304864 84.54170704 225.93335019 86.62291218 225.92884827 88.7040863 C225.92788339 91.84957048 225.9693586 94.99255252 226.0138092 98.13768005 C226.11382959 114.82706877 223.64466736 126.59067132 211.84584045 139.05955505 C203.4993728 146.93894544 193.41875654 150.5530212 182.17103577 150.50120544 C181.34139816 150.50135147 180.51176056 150.5014975 179.65698242 150.50164795 C176.91912711 150.50095218 174.18134011 150.49317544 171.4434967 150.4853363 C169.54349301 150.48347093 167.64348884 150.48204759 165.7434845 150.48104858 C160.7457903 150.47723278 155.74812521 150.46741047 150.7504425 150.4563446 C145.64943333 150.44611036 140.54841944 150.44154665 135.44740295 150.43650818 C125.44087975 150.42578738 115.43437815 150.40872217 105.4278717 150.38768005 C105.35439514 148.88527771 105.35439514 148.88527771 105.2794342 147.3525238 C105.20433091 146.01005246 105.12878645 144.66760575 105.0528717 143.32518005 C104.94845764 141.35871521 104.94845764 141.35871521 104.8419342 139.3525238 C104.2886792 134.05484613 103.54117364 129.81906826 100.2403717 125.57518005 C93.35884547 120.22288187 85.20015724 121.09515397 76.8653717 121.12205505 C74.90748718 121.11918488 74.90748718 121.11918488 72.91004944 121.11625671 C70.15650154 121.11332 67.40308404 121.11755599 64.64955139 121.12693787 C61.13599261 121.13833165 57.62273949 121.13176435 54.10919189 121.11979294 C50.73622792 121.11079129 47.36334434 121.11711041 43.9903717 121.12205505 C42.73603333 121.11800659 41.48169495 121.11395813 40.18934631 121.10978699 C29.73489255 121.03888189 29.73489255 121.03888189 20.6153717 125.57518005 C16.50900761 130.85479103 16.14890222 136.80827204 15.8028717 143.32518005 C15.76419983 144.00902771 15.72552795 144.69287537 15.6856842 145.39744568 C15.59264759 147.06047518 15.50923384 148.72403852 15.4278717 150.38768005 C4.56988336 150.50404561 -6.28795418 150.59263321 -17.14644146 150.64674091 C-22.1896858 150.6727232 -27.23250036 150.70791112 -32.27549744 150.76487732 C-37.1514585 150.81960567 -42.02700881 150.84918585 -46.90325356 150.86206627 C-48.75422942 150.87123345 -50.60518537 150.88913295 -52.45598412 150.91633034 C-68.95458575 151.14891244 -80.86602405 148.51845627 -93.2440033 136.8056488 C-99.74244581 129.92198934 -104.63027332 120.34691333 -104.74913025 110.80613708 C-104.76196548 109.90485077 -104.77480072 109.00356445 -104.7880249 108.07496643 C-104.79541183 107.10824005 -104.80279877 106.14151367 -104.81040955 105.14549255 C-104.81848129 104.14436432 -104.82655304 103.14323608 -104.83486938 102.11177063 C-104.84868708 99.99526185 -104.85941956 97.87873101 -104.86729431 95.76219177 C-104.88452814 92.53145632 -104.92843802 89.30173892 -104.97251892 86.0712738 C-104.98264469 84.01268756 -104.99116116 81.95409264 -104.99790955 79.89549255 C-105.01541763 78.93281464 -105.03292572 77.97013672 -105.05096436 76.97828674 C-105.03263628 71.29241914 -104.54623979 67.78751341 -100.5721283 63.38768005 C-96.3737829 60.18036566 -92.6752374 59.97262052 -87.56895447 60.04710388 C-86.77818512 60.0466658 -85.98741577 60.04622772 -85.17268372 60.04577637 C-82.56989998 60.04785936 -79.96776767 60.07116691 -77.36509705 60.0947113 C-75.55620679 60.10030901 -73.74731197 60.10457828 -71.93841553 60.10757446 C-67.18557603 60.11900952 -62.43301309 60.14846517 -57.68028259 60.1816864 C-52.82721192 60.21241616 -47.97409641 60.22608601 -43.12095642 60.24119568 C-33.6045591 60.27333616 -24.08836673 60.32451633 -14.5721283 60.38768005 C-14.58101074 59.76207184 -14.58989319 59.13646362 -14.5990448 58.49189758 C-14.68765524 51.97059786 -14.74791959 45.44946964 -14.79185486 38.92771912 C-14.811949 36.49503124 -14.83922918 34.06239154 -14.87388611 31.62986755 C-14.9224989 28.1297465 -14.94511968 24.63026503 -14.9627533 21.12986755 C-14.98339844 20.04527252 -15.00404358 18.96067749 -15.02531433 17.84321594 C-15.02707961 11.87994198 -14.83415375 7.95803385 -10.5721283 3.38768005 C-6.9271119 0.79995634 -4.45130566 0.01125502 0 0 Z M15.4278717 30.38768005 C15.4278717 40.28768005 15.4278717 50.18768005 15.4278717 60.38768005 C45.1278717 60.38768005 74.8278717 60.38768005 105.4278717 60.38768005 C105.4278717 50.48768005 105.4278717 40.58768005 105.4278717 30.38768005 C75.7278717 30.38768005 46.0278717 30.38768005 15.4278717 30.38768005 Z " fill="#000000" transform="translate(104.57212829589844,15.612319946289063)"/>
<path d="M0 0 C0.9731012 0.39049026 1.94620239 0.78098053 2.9487915 1.18330383 C6.14938089 2.47329157 9.3371175 3.792304 12.52563477 5.11181641 C14.79889715 6.03461511 17.07292662 6.95552613 19.34767151 7.87466431 C25.34990276 10.3056309 31.34177153 12.7611691 37.33166504 15.22235107 C43.25715733 17.65265649 49.19132956 20.06153996 55.12524414 22.47119141 C62.12301321 25.31337696 69.11919342 28.15913573 76.10726929 31.02508545 C87.3126579 35.61710646 98.53533447 40.14663014 109.8269043 44.52294922 C111.92646819 45.34188569 114.02592248 46.1611032 116.1252594 46.98062134 C120.01867921 48.50020367 123.92060876 49.99418992 127.82920837 51.47421265 C129.57095141 52.15266821 131.31231301 52.83210412 133.05322266 53.51269531 C134.21839133 53.94124502 134.21839133 53.94124502 135.40709877 54.3784523 C141.43942225 56.77784453 145.5987686 60.47683408 148.52954102 66.33837891 C148.63113667 68.0605494 148.66900358 69.78663241 148.67671204 71.51177979 C148.68744499 73.15627861 148.68744499 73.15627861 148.69839478 74.83399963 C148.70108368 76.04232956 148.70377258 77.25065948 148.70654297 78.49560547 C148.71311417 79.76397751 148.71968536 81.03234955 148.72645569 82.3391571 C148.74750536 86.55242648 148.75785987 90.76569625 148.76782227 94.97900391 C148.77186968 96.42945118 148.7759866 97.87989827 148.78017235 99.33034515 C148.79922713 106.14550592 148.81345675 112.96065585 148.82178432 119.77583814 C148.83155402 127.6413956 148.85786506 135.50667144 148.89828521 143.37212968 C148.92845651 149.45204603 148.9432542 155.53188172 148.94656533 161.61187148 C148.94891499 165.24286242 148.95786364 168.8735526 148.9830265 172.5044632 C149.01066153 176.5576801 149.00647305 180.61026908 148.99951172 184.66357422 C149.01872681 186.46392372 149.01872681 186.46392372 149.03833008 188.30064392 C148.99882356 194.60234899 148.85732663 198.59402083 144.52954102 203.33837891 C139.30694244 207.39468289 133.87613959 207.11235434 127.52954102 206.33837891 C122.94768084 204.16802409 120.62951023 201.91262049 118.52954102 197.33837891 C118.10375562 193.99571232 118.15055854 190.68117408 118.18896484 187.31567383 C118.18852676 186.31032593 118.18808868 185.30497803 118.18763733 184.26916504 C118.1897243 180.95219379 118.21305158 177.63573042 118.23657227 174.31884766 C118.24216853 172.01671118 118.24643848 169.71457113 118.24943542 167.41242981 C118.26088172 161.35757559 118.29034733 155.30293776 118.32354736 149.24816895 C118.35425271 143.06798225 118.36794178 136.88776054 118.38305664 130.70751953 C118.415217 118.58437766 118.46641099 106.46139629 118.52954102 94.33837891 C117.91844986 94.59323059 117.3073587 94.84808228 116.67774963 95.11065674 C94.05946929 104.53130353 71.37831543 113.79945682 48.65709496 122.96886444 C42.95544637 125.27033639 37.25737442 127.57994358 31.56640625 129.90771484 C25.97059105 132.19628154 20.36686513 134.46433586 14.75705147 136.7183609 C12.64558698 137.57074968 10.53698251 138.43026217 8.43150139 139.29732513 C5.4989404 140.5034919 2.5568968 141.68295878 -0.38867188 142.85693359 C-1.23504211 143.2121106 -2.08141235 143.5672876 -2.95343018 143.93322754 C-13.49147992 148.05576894 -22.69251935 146.99719368 -32.94091797 142.67675781 C-33.91401917 142.28626755 -34.88712036 141.89577728 -35.88970947 141.49345398 C-39.09029886 140.20346624 -42.27803546 138.88445381 -45.46655273 137.56494141 C-47.73981512 136.6421427 -50.01384459 135.72123169 -52.28858948 134.80209351 C-58.29082073 132.37112691 -64.2826895 129.91558872 -70.27258301 127.45440674 C-76.19807545 125.02410126 -82.13226172 122.61525311 -88.06616211 120.20556641 C-95.06262538 117.36347609 -102.05773133 114.51828179 -109.04598999 111.65606689 C-120.27127038 107.06085912 -131.51085308 102.51221896 -142.80297852 98.08349609 C-144.90700719 97.25520747 -147.01101664 96.42686999 -149.11500549 95.59848022 C-153.02394571 94.06022522 -156.93890206 92.53887568 -160.85801697 91.02676392 C-162.60285429 90.34138018 -164.34746173 89.65541081 -166.09179688 88.96875 C-166.87373728 88.67272762 -167.65567768 88.37670525 -168.46131325 88.07171249 C-174.36049156 85.72429277 -177.9047729 82.68690804 -181.47045898 77.33837891 C-182.1389956 71.95121757 -182.12013152 66.96256025 -180.09545898 61.90087891 C-173.97303629 55.92422819 -164.8685158 53.15600338 -157.00830078 50.06152344 C-156.01288773 49.66548416 -155.01747467 49.26944489 -153.99189758 48.86140442 C-150.71944235 47.56054923 -147.44456807 46.26590253 -144.16967773 44.97119141 C-141.8510533 44.05062551 -139.53260057 43.12962704 -137.21430969 42.20822144 C-131.72445852 40.02729752 -126.23313725 37.85011279 -120.74099714 35.67496002 C-111.64282084 32.0714915 -102.54732356 28.46127541 -93.4524231 24.84954834 C-88.74243535 22.97930071 -84.03075979 21.11339659 -79.31784058 19.25054932 C-68.89382241 15.12491095 -58.49251552 10.96213135 -48.16040039 6.61083984 C-46.4477457 5.89487915 -44.73500555 5.17912287 -43.02217102 4.46359253 C-39.95280797 3.18070266 -36.8965182 1.87211369 -33.84587097 0.54544067 C-32.49045238 -0.02347004 -31.13462789 -0.59141506 -29.77832031 -1.15820312 C-28.64550125 -1.64580109 -27.51268219 -2.13339905 -26.34553528 -2.63577271 C-17.23747017 -5.59396861 -8.53531759 -3.59824921 0 0 Z " fill="#000000" transform="translate(363.470458984375,259.66162109375)"/>
<path d="M0 0 C0.92506348 0.54414551 1.85012695 1.08829102 2.80322266 1.64892578 C4.04834264 2.3729965 5.29363171 3.09677652 6.5390625 3.8203125 C7.14500244 4.17778564 7.75094238 4.53525879 8.37524414 4.90356445 C25.52124086 14.82301782 44.59955352 15.28122042 63.84375 15.4140625 C65.59209041 15.43283013 67.3404223 15.4524074 69.08874512 15.4727478 C73.63245554 15.52348539 78.17619515 15.56341845 82.72003174 15.60089111 C87.3798306 15.64130257 92.03951426 15.69222292 96.69921875 15.7421875 C105.79939756 15.83825294 114.89964231 15.92287344 124 16 C124.33986435 16.69055984 124.6797287 17.38111969 125.02989197 18.09260559 C125.47756424 18.99637436 125.92523651 19.90014313 126.38647461 20.83129883 C126.82946396 21.72810867 127.27245331 22.62491852 127.72886658 23.54890442 C132.82636089 33.37827839 142.05510827 39.55990291 152.32421875 43.16796875 C165.56026179 46.1640125 178.20458905 44.32809114 189.75 37.25 C196.00403711 32.78283063 200.35029544 27.6453094 203.703125 20.734375 C204.13786133 19.84459961 204.57259766 18.95482422 205.02050781 18.03808594 C205.34374023 17.36551758 205.66697266 16.69294922 206 16 C206.95418823 15.99191315 207.90837646 15.98382629 208.89147949 15.97549438 C217.9517506 15.89748974 227.01188148 15.80962144 236.07196808 15.71247292 C240.72812513 15.6628532 245.38426317 15.61652484 250.04052734 15.578125 C254.5469886 15.54083268 259.05327591 15.49436397 263.55958557 15.44193649 C265.26563925 15.42362279 266.97172987 15.40843327 268.67784119 15.39665604 C291.93391901 15.23060907 309.08776236 11.94985008 330 0 C330 16.5 330 33 330 50 C324.37582031 52.18367188 318.75164062 54.36734375 312.95703125 56.6171875 C288.85938076 66.00555538 264.8486026 75.60870714 240.85083008 85.24902344 C234.80733983 87.67648961 228.76119952 90.0972852 222.7144804 92.51669502 C217.98343089 94.41096606 213.25422883 96.30981541 208.52552223 98.20992661 C206.29487536 99.10538736 204.06356709 99.99920258 201.83154869 100.89123917 C173.86793694 111.11407902 173.86793694 111.11407902 155 133 C154.67 133.99 154.34 134.98 154 136 C135.19801764 136.09346163 116.39608246 136.16398816 97.59391594 136.20724869 C88.86363838 136.22786965 80.1335052 136.25598128 71.40332031 136.30175781 C63.79364905 136.34163992 56.18408234 136.36743621 48.57430947 136.37635398 C44.54533768 136.38156643 40.51666503 136.39380764 36.48778915 136.42292023 C32.69403337 136.45011121 28.90069937 136.45843768 25.10685539 136.45243073 C23.71610279 136.45352933 22.3253358 136.46146168 20.93466759 136.4768219 C9.12924757 136.600797 9.12924757 136.600797 5.3130188 134.28411865 C2.29023793 131.29910609 0.23877325 128.68088289 -0.36914349 124.40135479 C-0.36637811 123.46942208 -0.36361273 122.53748938 -0.36076355 121.57731628 C-0.36488754 120.5018454 -0.36901154 119.42637451 -0.3732605 118.3183136 C-0.36247467 117.14874619 -0.35168884 115.97917877 -0.34057617 114.77416992 C-0.34101425 113.53473633 -0.34145233 112.29530273 -0.34190369 111.01831055 C-0.34017402 107.62800284 -0.32514806 104.23824584 -0.30418181 100.84803557 C-0.28540449 97.30197131 -0.28366375 93.7558994 -0.28010559 90.20979309 C-0.2707882 83.49856328 -0.24617865 76.78748039 -0.21605712 70.07631522 C-0.18250351 62.43428563 -0.1660247 54.79224895 -0.15097082 47.15016401 C-0.11962876 31.43335763 -0.06687432 15.71669778 0 0 Z " fill="#000000" transform="translate(0,180)"/>
<path d="M0 0 C5.9467756 1.92020165 11.77928041 4.02509136 17.57739258 6.35400391 C18.381828 6.67470352 19.18626343 6.99540314 20.01507568 7.32582092 C21.74402138 8.01545721 23.47250804 8.70624528 25.20057106 9.39809036 C27.93603587 10.49317803 30.67276618 11.58504709 33.40983582 12.67611694 C40.19941907 15.38338216 46.98682069 18.09610005 53.77429199 20.80865479 C59.52855337 23.10805507 65.28363343 25.4053833 71.03983116 27.6999321 C73.73505546 28.77530691 76.42904391 29.85373711 79.1230011 30.93228149 C80.77180051 31.58993379 82.42065707 32.24744282 84.06958008 32.90478516 C84.81717087 33.20505112 85.56476166 33.50531708 86.33500671 33.81468201 C92.46468374 36.25199728 97.5965636 37.27286851 104.1875 37.4375 C105.23454102 37.50614258 105.23454102 37.50614258 106.30273438 37.57617188 C111.8152011 37.68670957 116.55351506 36.2910471 121.68896484 34.42163086 C122.43054368 34.15543631 123.17212252 33.88924175 123.93617344 33.6149807 C131.69529055 30.7995742 139.35188474 27.73539779 146.9963665 24.62454605 C149.50460307 23.60391806 152.0147643 22.58815224 154.52540588 21.57345581 C159.83112904 19.42813511 165.13445137 17.27692169 170.4375 15.125 C176.64164021 12.60781139 182.84675807 10.09308258 189.05418587 7.58401108 C191.52715414 6.58303818 193.99839677 5.57788771 196.46958923 4.57254028 C197.97110029 3.96498953 199.472688 3.35762818 200.97436523 2.75048828 C201.66047379 2.47004166 202.34658234 2.18959503 203.05348206 1.90065002 C207.77233467 0 207.77233467 0 210 0 C210.09272133 11.63084971 210.16377603 23.26161134 210.20724869 34.89275551 C210.22811448 40.29370818 210.25641407 45.6944078 210.30175781 51.09521484 C210.34525098 56.30828714 210.36914469 61.52111618 210.37950897 66.73435593 C210.38689407 68.72227177 210.40131549 70.71017445 210.42292023 72.6979866 C210.45200018 75.48465898 210.45595406 78.27032897 210.45410156 81.05712891 C210.46848267 81.87712372 210.48286377 82.69711853 210.49768066 83.54196167 C210.45982288 88.81251438 209.5803579 91.87971345 206 96 C201.84740756 99.16452409 198.20245521 99.42936736 193.15003967 99.38768005 C192.36595889 99.39306559 191.58187811 99.39845113 190.7740373 99.40399987 C188.15006059 99.41829283 185.52658739 99.41117252 182.90258789 99.40405273 C181.0199798 99.4097556 179.13737517 99.41671954 177.254776 99.42485046 C172.1432122 99.44280612 167.03181984 99.44160896 161.92023396 99.43590808 C157.65322742 99.43281972 153.38625398 99.43890475 149.11925215 99.44494683 C139.05318767 99.45899834 128.98720805 99.45742553 118.92114258 99.44604492 C108.53563552 99.43456265 98.15038665 99.44863985 87.76491362 99.4754414 C78.84842613 99.49759064 69.93201973 99.50423753 61.01550668 99.49836498 C55.68999865 99.49499241 50.36465613 99.49743052 45.03917122 99.51461601 C40.03140025 99.53007066 35.0240121 99.52614596 30.01625633 99.50731087 C28.1788452 99.50362091 26.3414058 99.5067453 24.50402069 99.51719666 C21.99455282 99.53038065 19.48635713 99.51888285 16.97694397 99.50120544 C16.25076954 99.51081045 15.52459512 99.52041546 14.77641541 99.53031152 C9.7343318 99.45729055 6.89970627 98.13797478 3 95 C-0.63629307 90.68802121 -0.41098752 86.54716217 -0.34057617 81.1706543 C-0.34101425 80.29210281 -0.34145233 79.41355133 -0.34190369 78.50837708 C-0.33981883 75.61342914 -0.31650201 72.71906513 -0.29296875 69.82421875 C-0.28737172 67.8135459 -0.28310213 65.80286896 -0.28010559 63.79219055 C-0.26866527 58.50671035 -0.23920494 53.22147846 -0.20599365 47.93609619 C-0.17527533 42.54011392 -0.16159648 37.14409143 -0.14648438 31.74804688 C-0.11433459 21.16525564 -0.06314793 10.58264849 0 0 Z " fill="#000000" transform="translate(242,397)"/>
<path d="M0 0 C9.9 0 19.8 0 30 0 C30.0825 3.34125 30.165 6.6825 30.25 10.125 C30.28641602 11.16672363 30.32283203 12.20844727 30.36035156 13.28173828 C30.42873147 19.01572442 30.04461879 22.58393663 26 27 C20.77740143 31.05630398 15.34659858 30.77397544 9 30 C4.42488049 27.83283812 2.05870695 25.59067987 0 21 C-0.36264405 17.38583362 -0.28178217 13.81499952 -0.1875 10.1875 C-0.125625 6.825625 -0.06375 3.46375 0 0 Z " fill="#000000" transform="translate(150,166)"/>
</svg>
