<?xml version="1.0" encoding="UTF-8"?>
<svg version="1.1" xmlns="http://www.w3.org/2000/svg" width="512" height="512">
<path d="M0 0 C2.23356466 -0.00570979 4.4671264 -0.0126764 6.70068359 -0.02079773 C12.74008613 -0.03867814 18.77934296 -0.0375702 24.81876397 -0.03185534 C29.87312042 -0.02875567 34.92744919 -0.0348647 39.98180169 -0.04089409 C52.59380604 -0.0557219 65.20572309 -0.05214014 77.81772085 -0.04003078 C88.73855269 -0.03010465 99.65921495 -0.0430336 110.58002064 -0.06696498 C121.82750089 -0.09142409 133.07490446 -0.10054849 144.32241791 -0.09431225 C150.6234032 -0.09095209 156.92424848 -0.09329495 163.225214 -0.11056328 C169.15399509 -0.12610365 175.08245415 -0.1219983 181.01122284 -0.10325813 C183.1770465 -0.09959166 185.34289439 -0.10262347 187.5086956 -0.11314392 C202.72845864 -0.18138379 216.44581233 0.87872291 230.16674805 8.15405273 C230.83134033 8.49766846 231.49593262 8.84128418 232.18066406 9.1953125 C237.9769442 12.28746 243.00990103 15.95915188 247.85424805 20.40405273 C248.60963867 21.06791992 249.3650293 21.73178711 250.14331055 22.41577148 C264.32549723 35.59886941 273.05632723 54.63071649 274.03407669 73.9589138 C274.09928065 78.08749404 274.10219199 82.21150529 274.08129883 86.34033203 C274.08073357 87.91828911 274.0810535 89.49624672 274.08218384 91.07420349 C274.08275389 95.32552962 274.07105636 99.57674116 274.05703592 103.82804084 C274.04447014 108.28296297 274.04335348 112.7378882 274.04098511 117.19282532 C274.03478744 125.61440113 274.01839997 134.03592456 273.99828613 142.45747739 C273.9758736 152.05125479 273.96492027 161.64503479 273.95489526 171.23883188 C273.9340321 190.96060132 273.89888967 210.68232372 273.85424805 230.40405273 C273.31726288 229.99639679 272.78027771 229.58874084 272.22702026 229.16873169 C271.5160318 228.63166595 270.80504333 228.09460022 270.07250977 227.54125977 C269.3705246 227.00985382 268.66853943 226.47844788 267.94528198 225.93093872 C260.09953043 220.20192213 251.10319947 215.37232087 241.85424805 212.40405273 C240.92999023 212.1062793 240.00573242 211.80850586 239.0534668 211.50170898 C223.62743616 207.24827995 207.91544694 208.53031646 192.85424805 213.40405273 C191.47366211 213.83717773 191.47366211 213.83717773 190.06518555 214.27905273 C172.32264652 220.58751105 157.22189189 235.34204871 148.890625 251.98535156 C139.70365444 271.32647175 138.40689339 292.36360997 144.9206543 312.73999023 C146.10291086 315.71318991 147.40929997 318.54968809 148.85424805 321.40405273 C149.34666992 322.38760742 149.8390918 323.37116211 150.34643555 324.38452148 C156.0771734 334.98227354 163.82593967 343.71851382 173.85424805 350.40405273 C173.85424805 351.06405273 173.85424805 351.72405273 173.85424805 352.40405273 C173.28617432 352.68490723 172.71810059 352.96576172 172.1328125 353.25512695 C149.64303055 364.46250844 129.90804724 378.40352682 116.85424805 400.40405273 C116.44190918 401.09595703 116.02957031 401.78786133 115.60473633 402.50073242 C109.12697907 413.58129743 104.70688085 424.66422028 101.47338867 437.07495117 C100.64343473 440.19709654 99.74421409 443.29855153 98.85424805 446.40405273 C83.48458858 446.49792494 68.11495086 446.56824036 52.74507141 446.61130142 C45.60688636 446.63183612 38.4688805 446.65978014 31.33081055 446.70581055 C25.1017452 446.74595966 18.87280975 446.77155142 12.64361858 446.78040671 C9.35204164 446.78557463 6.0609179 446.79969797 2.7694397 446.82697296 C-14.17976351 446.96173579 -30.20645966 446.88959006 -45.52075195 438.65405273 C-46.18083252 438.31043701 -46.84091309 437.96682129 -47.52099609 437.61279297 C-53.28983736 434.5142019 -58.31761248 430.83408246 -63.14575195 426.40405273 C-63.90114258 425.74018555 -64.6565332 425.07631836 -65.43481445 424.39233398 C-79.42050885 411.3918861 -87.82547953 393.08052982 -89.42241371 374.11906278 C-89.53024182 370.78987406 -89.55089976 367.47288246 -89.53343201 364.14201355 C-89.53881754 362.88431209 -89.54420308 361.62661064 -89.54975182 360.33079702 C-89.56405374 356.88348709 -89.56001027 353.43641932 -89.55258501 349.989097 C-89.54781728 346.25412794 -89.5603948 342.51920862 -89.57060242 338.78425598 C-89.58772614 331.48386821 -89.58864379 324.18356675 -89.58338951 316.88316413 C-89.57933429 310.94398994 -89.58080736 305.0048411 -89.58613777 299.06566811 C-89.58688619 298.21766199 -89.58763462 297.36965588 -89.58840572 296.49595261 C-89.58993733 294.77275551 -89.59147568 293.04955842 -89.59302069 291.32636134 C-89.60672266 275.19629261 -89.60132443 259.06627249 -89.58983547 242.93620489 C-89.57990712 228.21131738 -89.59284099 213.4865556 -89.61676966 198.76168748 C-89.64121013 183.60655282 -89.65075631 168.4514766 -89.64411694 153.29632264 C-89.64063548 144.80214265 -89.64278538 136.30805926 -89.66036797 127.81389427 C-89.67515207 120.5825722 -89.67564496 113.35141475 -89.65829705 106.12009569 C-89.6498351 102.43787976 -89.6475181 98.75595714 -89.66294861 95.07375717 C-89.8020414 59.33989243 -89.8020414 59.33989243 -81.33325195 43.90405273 C-80.81178589 42.91465698 -80.81178589 42.91465698 -80.27978516 41.90527344 C-77.41553097 36.60813257 -74.21735561 31.8576232 -70.14575195 27.40405273 C-69.34524414 26.51202148 -68.54473633 25.61999023 -67.7199707 24.70092773 C-58.32648706 14.75008834 -47.17970494 7.71821495 -34.14575195 3.40405273 C-33.4287956 3.15655242 -32.71183924 2.9090521 -31.97315693 2.65405178 C-21.47384016 -0.48872335 -10.84882003 -0.02509089 0 0 Z M-5.52075195 87.21655273 C-8.07247269 92.22185111 -8.70007072 95.61791447 -7.02075195 101.02905273 C-4.06288986 106.35320451 -0.9723426 109.56467326 4.85424805 111.40405273 C8.27253238 111.70679748 8.27253238 111.70679748 12.05882263 111.66474915 C12.77348302 111.66857469 13.48814342 111.67240024 14.22446018 111.67634171 C16.61341989 111.68664072 19.00213786 111.68268552 21.39111328 111.67871094 C23.10623395 111.68305912 24.82135267 111.68824262 26.53646851 111.69419861 C31.1914074 111.70758811 35.84626511 111.70816735 40.50121951 111.70563531 C44.38796488 111.70456561 48.27469382 111.7094489 52.16143566 111.71424073 C61.33094357 111.72533564 70.50041051 111.72577334 79.66992188 111.71972656 C89.12835279 111.71368517 98.586635 111.72600204 108.04504055 111.74729663 C116.16747055 111.76491078 124.2898532 111.7709143 132.4123016 111.76765889 C137.26271137 111.76584567 142.11301505 111.76848613 146.96340752 111.78237343 C151.52462225 111.79494418 156.0856051 111.7930148 160.64681625 111.77996254 C162.31974808 111.77759561 163.9926962 111.78033563 165.66560936 111.78858566 C167.95157189 111.79904516 170.23675516 111.7909595 172.52268982 111.77827454 C173.80117515 111.77844228 175.07966047 111.77861002 176.39688778 111.77878284 C180.82997916 111.29829696 184.22095566 109.9287176 187.4987793 106.86889648 C191.65011058 101.44023249 192.632473 98.18572733 191.85424805 91.40405273 C190.22710811 86.36580016 187.45240067 83.74398509 182.78935719 81.21630955 C179.6331928 79.8915181 176.73800158 79.90009159 173.33996582 79.89611816 C172.61613504 79.8898782 171.89230426 79.88363824 171.14653921 79.87720919 C168.73822357 79.86134434 166.33092929 79.87385699 163.92260742 79.88647461 C162.18910637 79.88105057 160.45560994 79.87392632 158.72212219 79.86523438 C154.02582005 79.84703161 149.32987023 79.85405594 144.63356209 79.86675072 C139.71342155 79.87689418 134.7933107 79.8674813 129.87316895 79.86120605 C121.61143593 79.85393358 113.34984604 79.86350688 105.08813477 79.88256836 C95.54328169 79.90433632 85.99877041 79.89728467 76.45392561 79.87526274 C68.2515901 79.85709737 60.04935735 79.85455598 51.84700823 79.86501741 C46.9513085 79.87124608 42.0557693 79.87210519 37.16007996 79.85887146 C32.55689216 79.84729705 27.95414406 79.8553677 23.35100365 79.87844849 C21.66398536 79.88372709 19.97692992 79.88223633 18.28992653 79.87339783 C15.98229884 79.86242454 13.67606947 79.87622545 11.36853027 79.89611816 C10.07881569 79.89762627 8.7891011 79.89913437 7.46030426 79.90068817 C1.87299558 80.68061312 -1.83183842 82.8481025 -5.52075195 87.21655273 Z M-6.08325195 172.77905273 C-8.03551447 177.60228955 -8.58004487 181.00466446 -7.02075195 186.02905273 C-4.37749066 190.78692307 -1.28816214 194.42287539 3.85424805 196.40405273 C7.18095184 196.71158054 7.18095184 196.71158054 10.96307373 196.67147827 C11.67955212 196.67600938 12.39603051 196.6805405 13.13422036 196.68520892 C15.53542794 196.69787072 17.93640921 196.69623141 20.33764648 196.69458008 C22.05922742 196.70056432 23.78080566 196.70736962 25.50238037 196.7149353 C30.18023175 196.73261554 34.85800997 196.7372916 39.53589153 196.73856688 C42.45936278 196.73998816 45.38281542 196.74425739 48.30628204 196.74956131 C58.50815512 196.76806996 68.70997592 196.77623109 78.91186523 196.7746582 C88.41628341 196.77345735 97.92047429 196.79454659 107.42483497 196.82614553 C115.58804127 196.85231677 123.75117339 196.86302511 131.91442132 196.86174738 C136.78842419 196.8612379 141.66222519 196.86691348 146.53618622 196.88810349 C151.12288617 196.90749952 155.70919204 196.90760102 160.29590607 196.89307022 C161.97606483 196.89098255 163.65624833 196.89568057 165.33636475 196.90779114 C177.20739947 197.14419719 177.20739947 197.14419719 187.85424805 192.40405273 C191.46284206 188.20655957 192.52406108 184.11954473 192.2331543 178.61108398 C191.5939206 174.88771247 190.27701167 172.27865516 187.85424805 169.40405273 C182.81556464 165.97374393 179.55840815 164.90292177 173.34669495 164.88938904 C172.62356973 164.88244351 171.90044452 164.87549798 171.15540642 164.86834198 C168.74944284 164.85014892 166.34447395 164.86031408 163.93847656 164.87060547 C162.20659654 164.86354306 160.47472269 164.85479669 158.74285889 164.84449768 C154.05063565 164.82202986 149.35875014 164.82493733 144.66649365 164.83381915 C140.74502531 164.83893577 136.82362005 164.83163099 132.9021582 164.82434708 C123.64907131 164.8073563 114.39614937 164.8109056 105.14306641 164.82763672 C95.60613321 164.84455841 86.06965772 164.82872098 76.53277451 164.79641384 C68.33551419 164.76969973 60.13839619 164.76244683 51.94109672 164.77092892 C47.04923114 164.77585268 42.15764092 164.7736723 37.26581001 164.7531414 C32.665013 164.73475563 28.06487324 164.74077823 23.46411133 164.76534081 C21.77912154 164.77033948 20.09408142 164.76688343 18.409132 164.75419235 C8.60062731 164.68617882 0.56139259 164.63400458 -6.08325195 172.77905273 Z M-5.52075195 257.21655273 C-8.07247269 262.22185111 -8.70007072 265.61791447 -7.02075195 271.02905273 C-4.07006511 276.34028906 -0.97451318 279.5980948 4.85424805 281.40405273 C7.58621434 281.59592591 10.2151709 281.68774637 12.94580078 281.67871094 C14.14675888 281.68637733 14.14675888 281.68637733 15.37197876 281.69419861 C18.01067645 281.70806446 20.64911207 281.70714016 23.2878418 281.70483398 C25.12720333 281.70872247 26.96656398 281.71305745 28.80592346 281.71781921 C32.65840569 281.72527488 36.51079626 281.7249948 40.36328125 281.71972656 C45.29398408 281.71393172 50.22431131 281.73086645 55.15495205 281.75407124 C58.95284713 281.76882055 62.75065199 281.76967866 66.54857063 281.76656151 C68.3661988 281.76707408 70.1838321 281.7722998 72.00143242 281.78237343 C74.54563516 281.7947443 77.08910924 281.78794258 79.63330078 281.77636719 C80.3799852 281.78401093 81.12666962 281.79165466 81.89598083 281.79953003 C87.31108372 281.74522149 91.48611442 280.61468579 95.4987793 276.86889648 C99.62560076 271.4722838 100.67453055 268.15999058 99.85424805 261.40405273 C97.32184423 256.43303783 93.86563671 252.90974706 88.85424805 250.40405273 C86.2064126 250.29012098 83.58426997 250.23622144 80.93554688 250.22705078 C80.11744537 250.22047958 79.29934387 250.21390839 78.45645142 250.20713806 C75.74139315 250.18738329 73.02639032 250.17573609 70.3112793 250.16577148 C69.3840827 250.16169596 68.4568861 250.15762043 67.50159264 250.1534214 C62.59172157 250.13254887 57.68187852 250.1182537 52.77197266 250.10888672 C47.70558793 250.09783493 42.63964395 250.06345264 37.5734148 250.02371502 C33.67426246 249.99753623 29.77521477 249.98919364 25.87598228 249.98560524 C24.00891845 249.98074057 22.14185925 249.96912999 20.27488136 249.95056725 C17.65620969 249.92615445 15.0386731 249.92714484 12.41992188 249.93408203 C11.27016624 249.91486694 11.27016624 249.91486694 10.09718323 249.89526367 C3.40173911 249.9596627 -1.0962788 251.97704506 -5.52075195 257.21655273 Z " fill="#000000" transform="translate(142.145751953125,15.595947265625)"/>
<path d="M0 0 C0.68707031 0.57363281 1.37414062 1.14726562 2.08203125 1.73828125 C2.75878906 2.28097656 3.43554688 2.82367188 4.1328125 3.3828125 C22.02168383 18.21494465 33.45401136 41.82988147 36.08203125 64.73828125 C37.40573114 81.82021473 37.40573114 81.82021473 32.6640625 88.29296875 C28.25525895 92.32076459 24.76259239 93.11476511 18.8394928 93.1259613 C18.12074885 93.13134684 17.40200491 93.13673238 16.66148084 93.14228112 C14.25860161 93.15656249 11.85627314 93.14945676 9.45336914 93.14233398 C7.72839414 93.14803747 6.00342291 93.15500165 4.27845764 93.16313171 C-0.4033724 93.18108065 -5.08501519 93.17989148 -9.76686931 93.17418933 C-13.67598972 93.17109998 -17.58507404 93.17718711 -21.49418932 93.18322808 C-30.71645295 93.1972774 -39.93862396 93.19570863 -49.16088867 93.18432617 C-58.67389949 93.1728443 -68.1866284 93.18692086 -77.69960207 93.21372265 C-85.86875136 93.23587632 -94.03781215 93.24251778 -102.20698935 93.23664623 C-107.08537232 93.23327469 -111.96357459 93.23570488 -116.8419323 93.25289726 C-121.42947813 93.26835901 -126.01660623 93.26441947 -130.60413551 93.24559212 C-132.28674108 93.2419041 -133.96937754 93.24502094 -135.65195465 93.25547791 C-137.95126692 93.26867562 -140.24919373 93.25715282 -142.54844666 93.23948669 C-143.83430633 93.23927741 -145.120166 93.23906813 -146.44499111 93.2388525 C-151.78516933 92.46915573 -154.82640976 90.00219165 -158.29296875 85.98828125 C-163.95007139 74.88710493 -159.24648889 57.02099695 -155.69921875 45.703125 C-150.92024185 31.53595343 -143.45631977 19.35944839 -132.91796875 8.73828125 C-132.07234375 7.85140625 -131.22671875 6.96453125 -130.35546875 6.05078125 C-129.55109375 5.28765625 -128.74671875 4.52453125 -127.91796875 3.73828125 C-127.40621094 3.23167969 -126.89445312 2.72507812 -126.3671875 2.203125 C-92.16485909 -29.94852848 -35.59965124 -28.9287256 0 0 Z " fill="#000000" transform="translate(422.91796875,403.26171875)"/>
<path d="M0 0 C12.34682079 10.62636215 19.78182261 24.48345516 21.046875 40.7734375 C21.21609661 58.46649701 15.59058943 72.57771541 3.52734375 85.44921875 C-8.74633951 96.94975661 -23.1942841 100.22310155 -39.4375 99.984375 C-44.96766615 99.7991213 -49.80696042 98.82563707 -54.953125 96.7734375 C-56.39365234 96.20496094 -56.39365234 96.20496094 -57.86328125 95.625 C-72.68234292 89.00900602 -81.75827321 77.93461778 -87.765625 63.0859375 C-89.39422774 58.61771974 -90.68263976 54.5520101 -90.953125 49.7734375 C-91.00339844 49.06445312 -91.05367188 48.35546875 -91.10546875 47.625 C-91.7179578 32.48427076 -86.46427423 17.82873775 -76.640625 6.3359375 C-56.28618974 -14.60201445 -23.53068206 -17.74138727 0 0 Z " fill="#000000" transform="translate(395.953125,258.2265625)"/>
</svg>
